<?xml version="1.0" encoding="UTF-8"?>
<svg version="1.1" xmlns="http://www.w3.org/2000/svg" width="500" height="500">
<path d="M0 0 C165 0 330 0 500 0 C500 165 500 330 500 500 C335 500 170 500 0 500 C0 335 0 170 0 0 Z " fill="#FEFEFE" transform="translate(0,0)"/>
<path d="M0 0 C1.98 0 3.96 0 6 0 C6.33 0.66 6.66 1.32 7 2 C7.7425 1.896875 8.485 1.79375 9.25 1.6875 C12 2 12 2 14.0625 4.4375 C14.701875 5.283125 15.34125 6.12875 16 7 C16.65613281 7.11730469 17.31226563 7.23460937 17.98828125 7.35546875 C20 8 20 8 21.1328125 10.1796875 C21.46023437 11.06914062 21.78765625 11.95859375 22.125 12.875 C23.60251353 16.13764818 24.33427214 17.65230803 27.54296875 19.328125 C30.02731756 20.04294469 32.44515707 20.61305291 35 21 C33.75023244 17.34683329 33.32901247 16.21934164 30 14 C29.8125 10.375 29.8125 10.375 30 7 C31.32 6.67 32.64 6.34 34 6 C37.26934786 9.74778901 40.40073027 13.51379482 43.375 17.5 C46.7919527 21.95193169 50.69864793 25.43037219 55 29 C55.66 29.66 56.32 30.32 57 31 C61.6487559 30.77863067 65.02463336 29.10854402 68.97265625 26.83984375 C71.5730324 25.76261664 73.21052799 25.56277868 76 26 C80.72773509 30.21563999 83.47197016 35.50122426 83.875 41.8125 C83.9296875 44.45703125 83.9296875 44.45703125 83 47 C78.01800827 51.9472982 74.08389718 52.54484976 67.1953125 52.6484375 C66.14085937 52.64070313 65.08640625 52.63296875 64 52.625 C54.11217685 52.59317516 54.11217685 52.59317516 45 56 C42.94077598 58.05922402 43.58572421 62.21708124 43.4375 65.0625 C43.37272461 66.20041992 43.37272461 66.20041992 43.30664062 67.36132812 C43.20026367 69.24065438 43.09960066 71.12030244 43 73 C40.525 73.495 40.525 73.495 38 74 C37.54625 72.9275 37.0925 71.855 36.625 70.75 C36.08347537 69.49993846 35.54181721 68.24993475 35 67 C34.505 65.824375 34.505 65.824375 34 64.625 C33.02546436 62.65169931 33.02546436 62.65169931 30 62 C28.36132812 59.44628906 28.36132812 59.44628906 26.53125 56.015625 C23.40716918 50.32180736 20.03485962 44.8703641 16.40625 39.484375 C15.68405273 38.41092834 15.68405273 38.41092834 14.94726562 37.3157959 C13.46846448 35.12472027 11.98502942 32.93685839 10.5 30.75 C8.50512884 27.81082235 6.5164262 24.86760658 4.53125 21.921875 C4.07512329 21.25428162 3.61899658 20.58668823 3.14904785 19.89886475 C0 15.22546725 0 15.22546725 0 13 C-0.66 13 -1.32 13 -2 13 C-4.36503039 10.00893216 -5.91553181 7.97138418 -6.25 4.125 C-6.1675 3.42375 -6.085 2.7225 -6 2 C-4.02 2 -2.04 2 0 2 C0 1.34 0 0.68 0 0 Z " fill="#499B3A" transform="translate(223,259)"/>
<path d="M0 0 C8.00816962 2.83450677 11.32113211 10.45497013 15.21679688 17.38671875 C18.60472852 23.24934346 18.60472852 23.24934346 24.2734375 26.8046875 C28.33337146 27.40935852 29.82162703 27.10589448 33.2734375 24.8046875 C36.64589685 22.55638127 38.31248961 22.42745437 42.2734375 22.8046875 C42.2734375 24.7846875 42.2734375 26.7646875 42.2734375 28.8046875 C41.2834375 28.8046875 40.2934375 28.8046875 39.2734375 28.8046875 C39.0465625 29.5884375 38.8196875 30.3721875 38.5859375 31.1796875 C37.18769486 35.04150051 35.4195131 38.53964428 33.546875 42.1875 C32.38546633 44.5744442 31.43710574 46.94015111 30.5234375 49.4296875 C28.39596474 54.96814964 25.44947334 59.99614532 22.44628906 65.09619141 C20.22098483 68.91815615 18.51010947 72.52287704 17.2734375 76.8046875 C16.6134375 76.8046875 15.9534375 76.8046875 15.2734375 76.8046875 C15.1703125 77.6709375 15.0671875 78.5371875 14.9609375 79.4296875 C14.23945336 82.97151873 13.00220489 85.64780792 11.2734375 88.8046875 C10.6134375 88.8046875 9.9534375 88.8046875 9.2734375 88.8046875 C9.0053125 89.5265625 8.7371875 90.2484375 8.4609375 90.9921875 C7.27442388 93.80235133 5.99858111 96.28885307 4.2734375 98.8046875 C3.6134375 98.8046875 2.9534375 98.8046875 2.2734375 98.8046875 C2.2734375 96.4946875 2.2734375 94.1846875 2.2734375 91.8046875 C-0.2015625 92.7946875 -0.2015625 92.7946875 -2.7265625 93.8046875 C-2.7265625 91.1646875 -2.7265625 88.5246875 -2.7265625 85.8046875 C-3.3865625 85.8046875 -4.0465625 85.8046875 -4.7265625 85.8046875 C-4.97265625 83.5625 -4.97265625 83.5625 -4.7265625 80.8046875 C-3.01171875 78.671875 -3.01171875 78.671875 -0.7890625 76.6796875 C2.49575683 73.76152747 2.49575683 73.76152747 4.2734375 69.8046875 C3.6134375 69.8046875 2.9534375 69.8046875 2.2734375 69.8046875 C2.0259375 70.4234375 1.7784375 71.0421875 1.5234375 71.6796875 C0.06715111 74.15537437 -1.10468756 74.75593752 -3.7265625 75.8046875 C-1.9765625 69.0546875 -1.9765625 69.0546875 0.2734375 66.8046875 C0.55446821 64.73113911 0.55446821 64.73113911 0.4609375 62.4296875 C0.45449219 61.65882813 0.44804687 60.88796875 0.44140625 60.09375 C0.27938901 57.88579406 -0.12021356 55.92933418 -0.7265625 53.8046875 C-1.3865625 53.8046875 -2.0465625 53.8046875 -2.7265625 53.8046875 C-2.91992188 54.43117187 -3.11328125 55.05765625 -3.3125 55.703125 C-3.70308594 56.92902344 -3.70308594 56.92902344 -4.1015625 58.1796875 C-4.35679687 58.99179688 -4.61203125 59.80390625 -4.875 60.640625 C-5.7265625 62.8046875 -5.7265625 62.8046875 -7.7265625 64.8046875 C-10.3515625 64.9296875 -10.3515625 64.9296875 -12.7265625 64.8046875 C-13.06206216 59.99585903 -12.29821119 57.8050299 -9.7265625 53.8046875 C-6.8818721 47.31879339 -5.52367172 40.83800414 -4.7265625 33.8046875 C-4.59507812 32.78246094 -4.46359375 31.76023438 -4.328125 30.70703125 C-4.44174154 27.5877471 -4.44174154 27.5877471 -7.16796875 25.56640625 C-8.19792969 24.88191406 -9.22789062 24.19742188 -10.2890625 23.4921875 C-15.49102318 19.47982248 -15.49102318 19.47982248 -16.515625 16.54296875 C-16.25397957 10.77670606 -12.97023251 6.52648065 -9.046875 2.51171875 C-5.94646881 0.23078019 -3.78214794 -0.12654027 0 0 Z " fill="#449B3A" transform="translate(277.7265625,178.1953125)"/>
<path d="M0 0 C-0.3125 1.9375 -0.3125 1.9375 -1 4 C-1.99 4.33 -2.98 4.66 -4 5 C-3.01 5.66 -2.02 6.32 -1 7 C-1 7.99 -1 8.98 -1 10 C-3.64 10.66 -6.28 11.32 -9 12 C-8.01 12.495 -8.01 12.495 -7 13 C-7 13.99 -7 14.98 -7 16 C-12.46137814 16.09752461 -17.59255982 15.77249145 -23 15 C-20.36 15.66 -17.72 16.32 -15 17 C-15 17.66 -15 18.32 -15 19 C-15.92941406 18.979375 -16.85882813 18.95875 -17.81640625 18.9375 C-25.09294861 18.88101454 -25.09294861 18.88101454 -31.48828125 21.84765625 C-33.1743072 23.82690411 -34.65353191 25.77782147 -36 28 C-35.41347656 27.83886719 -34.82695312 27.67773438 -34.22265625 27.51171875 C-31.08516547 26.78937904 -28.20657046 26.82509616 -25 27 C-24.01 27.66 -23.02 28.32 -22 29 C-22.33 30.65 -22.66 32.3 -23 34 C-24.11117187 34.09796875 -25.22234375 34.1959375 -26.3671875 34.296875 C-37.3722095 35.36498009 -37.3722095 35.36498009 -47.7265625 39.09765625 C-50.76348599 40.3030331 -53.767799 40.6204316 -57 41 C-57.12117188 42.20398438 -57.24234375 43.40796875 -57.3671875 44.6484375 C-57.53599859 46.22400766 -57.70529459 47.79952592 -57.875 49.375 C-57.95363281 50.1690625 -58.03226563 50.963125 -58.11328125 51.78125 C-58.7734375 57.7734375 -58.7734375 57.7734375 -61 60 C-63.65683945 60.28013291 -66.15308766 60.41618681 -68.8125 60.4375 C-69.52470703 60.47037109 -70.23691406 60.50324219 -70.97070312 60.53710938 C-75.02612034 60.57837634 -76.77048117 60.18695905 -79.94921875 57.59765625 C-82.78882699 54.00081914 -83.56977535 51.49444484 -83.5546875 46.83984375 C-82.571103 41.80416815 -79.7162543 37.63718966 -77.04296875 33.33203125 C-72.8468155 26.7014244 -72.8468155 26.7014244 -71.8125 19.125 C-71.83957031 18.34382813 -71.86664063 17.56265625 -71.89453125 16.7578125 C-71.92933594 16.17773438 -71.96414062 15.59765625 -72 15 C-72.92232422 14.63648438 -72.92232422 14.63648438 -73.86328125 14.265625 C-82.1463603 10.83085538 -82.1463603 10.83085538 -84 7 C-84 6.01 -84 5.02 -84 4 C-76.37773687 3.4160777 -68.75436833 2.84850539 -61.13012695 2.29101562 C-58.54978444 2.10055378 -55.96969112 1.90667771 -53.38989258 1.70898438 C-35.55969244 0.34572351 -17.88237464 -0.28385371 0 0 Z " fill="#3D9939" transform="translate(262,213)"/>
<path d="M0 0 C7.63646237 3.7956381 13.18495401 11.51055487 17 19 C17 19.66 17 20.32 17 21 C15.91332031 20.98646484 15.91332031 20.98646484 14.8046875 20.97265625 C9.11482022 21.07789801 9.11482022 21.07789801 4.0390625 23.34375 C0.87657362 26.87546347 -0.68550971 30.51743401 -2.1796875 34.95703125 C-5.07034681 42.15614944 -10.95253403 47.86658821 -18 51 C-25.72710901 52.52724037 -33.65487467 52.11132476 -41.5 52.0625 C-42.90885258 52.05747533 -44.31770689 52.05291413 -45.7265625 52.04882812 C-49.15108638 52.0371003 -52.57552047 52.02068691 -56 52 C-54.76207321 48.28621962 -53.86820578 48.15266416 -50.5 46.375 C-37.64914664 38.8878219 -31.09641988 27.15019622 -24.5625 14.1875 C-18.90302476 3.68432974 -12.53132477 -2.57277198 0 0 Z " fill="#055B2F" transform="translate(262,153)"/>
<path d="M0 0 C0.66 0 1.32 0 2 0 C2.433125 1.11375 2.86625 2.2275 3.3125 3.375 C4.69911119 7.17512334 4.69911119 7.17512334 8 9 C10.58053959 9.31920627 10.58053959 9.31920627 13.48046875 9.30859375 C14.56263672 9.33373047 15.64480469 9.35886719 16.75976562 9.38476562 C19.02533803 9.41962059 21.290968 9.45093352 23.55664062 9.47851562 C31.15430651 9.66294683 37.55647638 10.06040666 43.5625 15.1875 C44.366875 16.115625 45.17125 17.04375 46 18 C46.83337891 18.91845703 46.83337891 18.91845703 47.68359375 19.85546875 C53.37595942 26.18440004 57.80888845 32.09819998 61 40 C61.66 40.99 62.32 41.98 63 43 C63.125 45.6875 63.125 45.6875 63 48 C56.47798742 45.31446541 56.47798742 45.31446541 53.625 43.4375 C47.37379834 40.0142229 40.23310823 39.71152469 33.23828125 39.69140625 C31.60871999 39.66627187 29.97916278 39.64087352 28.34960938 39.61523438 C25.82186731 39.58643451 23.29419497 39.56236485 20.76635742 39.54370117 C18.29833138 39.52199533 15.83104806 39.48259039 13.36328125 39.44140625 C12.61315262 39.44129044 11.86302399 39.44117462 11.09016418 39.4410553 C4.79689685 39.32303398 0.90121106 37.64771625 -3.8125 33.5625 C-7.54649636 29.18838998 -7.18389708 25.6548353 -7 20 C-6.48003781 17.43978006 -5.87293552 14.89596508 -5.1875 12.375 C-4.85105469 11.10398437 -4.51460937 9.83296875 -4.16796875 8.5234375 C-3.09571289 5.28873923 -2.00506608 2.74709841 0 0 Z " fill="#0A5C32" transform="translate(173,267)"/>
<path d="M0 0 C0.99 0 1.98 0 3 0 C3.01417969 0.71542969 3.02835937 1.43085938 3.04296875 2.16796875 C3.44491886 10.56546694 5.66310461 17.33285597 9 25 C9.46792969 26.15242188 9.93585938 27.30484375 10.41796875 28.4921875 C12.00268326 32.00594955 13.84139307 35.08183999 15.9375 38.3125 C21.40425655 47.01951129 25.17431361 54.50818172 24 65 C22.67752338 68.96742987 20.43557141 70.82460745 17 73 C9.01899478 76.76715358 0.61497411 76.31013907 -8 76 C-7.35160156 75.07703125 -6.70320313 74.1540625 -6.03515625 73.203125 C-3.52180478 69.24737029 -3.30657978 67.62280144 -4 63 C-6.39523583 56.82539617 -9.66205782 51.94043415 -14 47 C-16.40402573 39.78792281 -16.13522546 29.74718924 -12.90234375 22.8046875 C-12.60457031 22.20914062 -12.30679687 21.61359375 -12 21 C-11.73316406 20.32195312 -11.46632813 19.64390625 -11.19140625 18.9453125 C-8.46832816 12.14366855 -4.65948457 5.65452851 0 0 Z " fill="#085B32" transform="translate(315,235)"/>
<path d="M0 0 C3.28002324 1.68119359 6.14183492 3.68032979 9 6 C9.309375 5.195625 9.61875 4.39125 9.9375 3.5625 C11 1 11 1 12 0 C13.98 0 15.96 0 18 0 C18 7.59 18 15.18 18 23 C21.96 23 25.92 23 30 23 C30 24.98 30 26.96 30 29 C23.73 29 17.46 29 11 29 C10.34 27.35 9.68 25.7 9 24 C8.03900391 24.6496875 8.03900391 24.6496875 7.05859375 25.3125 C0.77615249 29.35723118 -3.06088946 30.96372889 -10.5625 29.5 C-14.46374384 27.09923456 -16.96127774 24.09783174 -19 20 C-19.86339936 15.41145019 -19.60825831 11.52064577 -17.875 7.1875 C-12.47745483 0.89036397 -8.48755015 -1.86497739 0 0 Z " fill="#EDF0EF" transform="translate(266,342)"/>
<path d="M0 0 C-0.3125 1.9375 -0.3125 1.9375 -1 4 C-1.99 4.33 -2.98 4.66 -4 5 C-3.01 5.66 -2.02 6.32 -1 7 C-1 7.99 -1 8.98 -1 10 C-3.64 10.66 -6.28 11.32 -9 12 C-8.01 12.495 -8.01 12.495 -7 13 C-7 13.99 -7 14.98 -7 16 C-12.46137814 16.09752461 -17.59255982 15.77249145 -23 15 C-20.36 15.66 -17.72 16.32 -15 17 C-15 17.66 -15 18.32 -15 19 C-15.92941406 18.979375 -16.85882813 18.95875 -17.81640625 18.9375 C-25.09294861 18.88101454 -25.09294861 18.88101454 -31.48828125 21.84765625 C-33.1743072 23.82690411 -34.65353191 25.77782147 -36 28 C-35.41347656 27.83886719 -34.82695312 27.67773438 -34.22265625 27.51171875 C-31.08516547 26.78937904 -28.20657046 26.82509616 -25 27 C-24.01 27.66 -23.02 28.32 -22 29 C-22.33 30.65 -22.66 32.3 -23 34 C-24.12277344 34.10957031 -25.24554688 34.21914062 -26.40234375 34.33203125 C-34.29886571 35.15155646 -41.57056045 36.02822418 -49 39 C-49 38.01 -49 37.02 -49 36 C-45.85426323 33.90284215 -43.98543749 33.47995441 -40.3125 32.875 C-38.82169922 32.62363281 -38.82169922 32.62363281 -37.30078125 32.3671875 C-36.16189453 32.18542969 -36.16189453 32.18542969 -35 32 C-35 31.34 -35 30.68 -35 30 C-35.99 29.34 -36.98 28.68 -38 28 C-37.40165275 23.85701333 -35.99335715 20.81805623 -33.9375 17.1875 C-33.38964844 16.21167969 -32.84179688 15.23585937 -32.27734375 14.23046875 C-31.64505859 13.12638672 -31.64505859 13.12638672 -31 12 C-30.34 12 -29.68 12 -29 12 C-29 11.34 -29 10.68 -29 10 C-27.02 9.34 -25.04 8.68 -23 8 C-23 7.34 -23 6.68 -23 6 C-21.35 5.67 -19.7 5.34 -18 5 C-18 4.01 -18 3.02 -18 2 C-19.0209375 2.31839844 -20.041875 2.63679687 -21.09375 2.96484375 C-24.58332379 3.95501031 -27.86613981 4.36663827 -31.5 4.5625 C-32.14364502 4.59931885 -32.78729004 4.6361377 -33.45043945 4.67407227 C-38.55158008 4.94141812 -43.65564505 5.07789186 -48.76171875 5.2109375 C-50.15885496 5.24923859 -51.55599037 5.28756894 -52.953125 5.32592773 C-55.75117721 5.40228587 -58.5491102 5.46481342 -61.34765625 5.51977539 C-63.30058594 5.56992798 -63.30058594 5.56992798 -65.29296875 5.62109375 C-66.4636792 5.6461499 -67.63438965 5.67120605 -68.84057617 5.69702148 C-71.94087419 5.99433003 -74.19559215 6.68416907 -77 8 C-75.68 9.65 -74.36 11.3 -73 13 C-73.99 13.495 -73.99 13.495 -75 14 C-79.04718113 12.3639055 -81.82992994 10.85790233 -84 7 C-84 6.01 -84 5.02 -84 4 C-76.37773687 3.4160777 -68.75436833 2.84850539 -61.13012695 2.29101562 C-58.54978444 2.10055378 -55.96969112 1.90667771 -53.38989258 1.70898438 C-35.55969244 0.34572351 -17.88237464 -0.28385371 0 0 Z " fill="#5D964F" transform="translate(262,213)"/>
<path d="M0 0 C0.33 1.32 0.66 2.64 1 4 C1.598125 4.144375 2.19625 4.28875 2.8125 4.4375 C7.8010878 5.72027972 7.8010878 5.72027972 9.5 8.109375 C10.2425 9.41648438 10.2425 9.41648438 11 10.75 C11.495 11.61109375 11.99 12.4721875 12.5 13.359375 C12.995 14.23078125 13.49 15.1021875 14 16 C14.55300781 16.80308594 15.10601562 17.60617188 15.67578125 18.43359375 C17.3084123 21.59771941 17.30411076 23.77530708 17.1875 27.3125 C17.16042969 28.38113281 17.13335937 29.44976562 17.10546875 30.55078125 C17.07066406 31.35902344 17.03585937 32.16726563 17 33 C17.66 33 18.32 33 19 33 C20.32 30.36 21.64 27.72 23 25 C23.66 25 24.32 25 25 25 C24.67 26.98 24.34 28.96 24 31 C23.34 31 22.68 31 22 31 C21.896875 31.86625 21.79375 32.7325 21.6875 33.625 C20.96601586 37.16683123 19.72876739 39.84312042 18 43 C17.34 43 16.68 43 16 43 C15.731875 43.721875 15.46375 44.44375 15.1875 45.1875 C14.00098638 47.99766383 12.72514361 50.48416557 11 53 C10.34 53 9.68 53 9 53 C9 50.69 9 48.38 9 46 C7.35 46.66 5.7 47.32 4 48 C4 45.36 4 42.72 4 40 C3.34 40 2.68 40 2 40 C1.75390625 37.7578125 1.75390625 37.7578125 2 35 C3.71484375 32.8671875 3.71484375 32.8671875 5.9375 30.875 C9.22231933 27.95683997 9.22231933 27.95683997 11 24 C10.34 24 9.68 24 9 24 C8.7525 24.61875 8.505 25.2375 8.25 25.875 C6.79371361 28.35068687 5.62187494 28.95125002 3 30 C4.75 23.25 4.75 23.25 7 21 C7.28103071 18.92645161 7.28103071 18.92645161 7.1875 16.625 C7.18105469 15.85414063 7.17460937 15.08328125 7.16796875 14.2890625 C7.00595151 12.08110656 6.60634894 10.12464668 6 8 C5.34 8 4.68 8 4 8 C3.80664062 8.62648437 3.61328125 9.25296875 3.4140625 9.8984375 C3.15367187 10.71570313 2.89328125 11.53296875 2.625 12.375 C2.36976563 13.18710938 2.11453125 13.99921875 1.8515625 14.8359375 C1 17 1 17 -1 19 C-3.625 19.125 -3.625 19.125 -6 19 C-6.33549966 14.19117153 -5.57164869 12.0003424 -3 8 C-1.90503649 5.36123659 -0.95854618 2.69305833 0 0 Z " fill="#5B9D60" transform="translate(271,224)"/>
<path d="M0 0 C1.39456452 0.00667256 2.78911118 0.01863093 4.18359375 0.03515625 C4.89451172 0.03966797 5.60542969 0.04417969 6.33789062 0.04882812 C8.09899388 0.06064761 9.86005411 0.07858362 11.62109375 0.09765625 C11.62109375 0.75765625 11.62109375 1.41765625 11.62109375 2.09765625 C12.42546875 2.40703125 13.22984375 2.71640625 14.05859375 3.03515625 C16.62109375 4.09765625 16.62109375 4.09765625 17.62109375 5.09765625 C17.74603991 6.71905062 17.79680999 8.34649747 17.80859375 9.97265625 C17.82277344 10.85695313 17.83695313 11.74125 17.8515625 12.65234375 C17.62109375 15.09765625 17.62109375 15.09765625 15.62109375 18.09765625 C15.90383513 21.40851884 15.90383513 21.40851884 17.62109375 24.09765625 C17.66173207 25.7638274 17.66381475 27.4315372 17.62109375 29.09765625 C12.15783496 29.4618735 12.15783496 29.4618735 9.87109375 27.91015625 C8.62109375 26.09765625 8.62109375 26.09765625 7.68359375 23.47265625 C7.33296875 22.68890625 6.98234375 21.90515625 6.62109375 21.09765625 C5.30109375 20.76765625 3.98109375 20.43765625 2.62109375 20.09765625 C2.62109375 23.06765625 2.62109375 26.03765625 2.62109375 29.09765625 C0.31109375 29.09765625 -1.99890625 29.09765625 -4.37890625 29.09765625 C-4.40356506 25.12834636 -4.42174648 21.15906591 -4.43383789 17.18969727 C-4.43887682 15.83845239 -4.44570802 14.48721299 -4.4543457 13.13598633 C-4.46643044 11.19745191 -4.47160453 9.25887825 -4.4765625 7.3203125 C-4.48179932 6.15250244 -4.48703613 4.98469238 -4.49243164 3.78149414 C-4.32347323 -0.21282801 -4.10263002 0.11857312 0 0 Z " fill="#346A50" transform="translate(146.37890625,341.90234375)"/>
<path d="M0 0 C5.94 0 11.88 0 18 0 C18 2.31 18 4.62 18 7 C14.37 7 10.74 7 7 7 C7 8.32 7 9.64 7 11 C10.3 11 13.6 11 17 11 C17 13.31 17 15.62 17 18 C14.03 18 11.06 18 8 18 C8 19.32 8 20.64 8 22 C11.3 22 14.6 22 18 22 C18.04241723 24.33294775 18.04092937 26.66702567 18 29 C17 30 17 30 13.18359375 30.09765625 C11.60152953 30.09191138 10.01948969 30.07889593 8.4375 30.0625 C4.2609375 30.0315625 4.2609375 30.0315625 0 30 C0 20.1 0 10.2 0 0 Z " fill="#185B3A" transform="translate(168,342)"/>
<path d="M0 0 C3.07892757 1.58912391 5.71639483 3.3783192 8 6 C8 6.99 8 7.98 8 9 C4.625 9.625 4.625 9.625 1 10 C0.34 9.34 -0.32 8.68 -1 8 C-5.33643601 7.68462284 -7.32653229 7.55102153 -11 10 C-11.40564287 14.94884301 -11.25552839 18.48894322 -9 23 C-7.53984709 22.71758359 -6.08190207 22.42373386 -4.625 22.125 C-3.40683594 21.88136719 -3.40683594 21.88136719 -2.1640625 21.6328125 C0.18673923 21.13341068 0.18673923 21.13341068 2 19 C4.625 19.375 4.625 19.375 7 20 C7.33 21.32 7.66 22.64 8 24 C0.36363636 29.81818182 0.36363636 29.81818182 -4.75 30.5 C-10.07799118 29.68030905 -12.76390307 28.6123927 -16.3125 24.5 C-19.64113571 19.79015204 -19.96001443 15.60493271 -19 10 C-15.59383903 1.48459758 -8.75009294 -1.93253586 0 0 Z " fill="#376A52" transform="translate(266,342)"/>
<path d="M0 0 C1.04671875 -0.02578125 2.0934375 -0.0515625 3.171875 -0.078125 C6.64519274 0.29212714 8.4825016 1.1506904 11.25 3.25 C12.1875 5.8125 12.1875 5.8125 12.25 8.25 C11.59 8.91 10.93 9.57 10.25 10.25 C8.93 10.25 7.61 10.25 6.25 10.25 C6.25 9.59 6.25 8.93 6.25 8.25 C2.62 8.25 -1.01 8.25 -4.75 8.25 C-4.95625 9.8175 -5.1625 11.385 -5.375 13 C-5.49101562 13.88171875 -5.60703125 14.7634375 -5.7265625 15.671875 C-5.75207817 18.47859878 -5.19843844 19.88384866 -3.75 22.25 C0.2600934 22.42864631 0.2600934 22.42864631 4.25 22.25 C4.91 21.59 5.57 20.93 6.25 20.25 C9.375 20.625 9.375 20.625 12.25 21.25 C11.6876049 24.51189156 10.8359495 26.16134848 8.25 28.25 C2.54691389 30.1510287 -3.33116469 29.83626231 -8.75 27.25 C-13.25707421 22.49930015 -14.2554583 18.28506152 -14.24609375 11.8984375 C-13.36598823 7.19992141 -10.16841604 4.38969627 -6.75 1.25 C-4.96430839 -0.53569161 -2.41346262 0.03531897 0 0 Z " fill="#1F5B3E" transform="translate(202.75,341.75)"/>
<path d="M0 0 C5.94 0 11.88 0 18 0 C18 1.98 18 3.96 18 6 C14.37 6 10.74 6 7 6 C7 7.32 7 8.64 7 10 C7.63808594 9.98839844 8.27617187 9.97679687 8.93359375 9.96484375 C9.75988281 9.95582031 10.58617187 9.94679688 11.4375 9.9375 C12.26121094 9.92589844 13.08492188 9.91429687 13.93359375 9.90234375 C16 10 16 10 17 11 C17.125 13.5 17.125 13.5 17 16 C16 17 16 17 13.93359375 17.09765625 C13.10988281 17.08605469 12.28617187 17.07445312 11.4375 17.0625 C10.61121094 17.05347656 9.78492188 17.04445313 8.93359375 17.03515625 C7.97646484 17.01775391 7.97646484 17.01775391 7 17 C7 18.65 7 20.3 7 22 C10.63 22 14.26 22 18 22 C18 23.98 18 25.96 18 28 C12.06 28 6.12 28 0 28 C0 18.76 0 9.52 0 0 Z " fill="#396952" transform="translate(299,343)"/>
<path d="M0 0 C2.31 0 4.62 0 7 0 C6.37889888 2.85833268 5.48383222 5.22650534 4.125 7.8125 C3.77050781 8.51246094 3.41601562 9.21242188 3.05078125 9.93359375 C2.70402344 10.61550781 2.35726562 11.29742187 2 12 C-0.85261961 17.70523923 -1.6335546 22.71988407 -2 29 C-4.31 29 -6.62 29 -9 29 C-8.979375 28.37996094 -8.95875 27.75992187 -8.9375 27.12109375 C-9.13129496 18.80002273 -12.21576858 13.10916955 -16.28515625 6.08984375 C-18 3 -18 3 -18 1 C-14.46835953 0.67894178 -12.64284949 0.51786288 -9.75 2.6875 C-7.95581983 5.05838094 -6.93699029 7.18902913 -6 10 C-4.52774699 7.79162049 -3.17899562 5.6162256 -1.875 3.3125 C-1.25625 2.219375 -0.6375 1.12625 0 0 Z " fill="#2D664B" transform="translate(237,342)"/>
<path d="M0 0 C3.31248187 -0.02888146 6.62493167 -0.04675799 9.9375 -0.0625 C10.88302734 -0.07087891 11.82855469 -0.07925781 12.80273438 -0.08789062 C14.15141602 -0.09272461 14.15141602 -0.09272461 15.52734375 -0.09765625 C16.77632446 -0.10551147 16.77632446 -0.10551147 18.05053711 -0.11352539 C20 0 20 0 21 1 C21.04080783 2.99958364 21.04254356 5.00045254 21 7 C18.69 7 16.38 7 14 7 C14 14.26 14 21.52 14 29 C11.69 29 9.38 29 7 29 C7 21.74 7 14.48 7 7 C4.69 7 2.38 7 0 7 C0 4.69 0 2.38 0 0 Z " fill="#386A51" transform="translate(344,342)"/>
<path d="M0 0 C1.98 0 3.96 0 6 0 C6 7.59 6 15.18 6 23 C9.96 23 13.92 23 18 23 C18 24.98 18 26.96 18 29 C12.06 29 6.12 29 0 29 C0 19.43 0 9.86 0 0 Z " fill="#2A6047" transform="translate(278,342)"/>
<path d="M0 0 C3.43846301 2.94725401 5.63012296 6.44302393 6.28637695 10.97973633 C6.51435718 17.39719871 4.69675985 21.58576879 1.5 27.0625 C1.07074219 27.83271484 0.64148438 28.60292969 0.19921875 29.39648438 C-0.85026039 31.27388594 -1.92278054 33.13837669 -3 35 C-3.66 35 -4.32 35 -5 35 C-5 32.36 -5 29.72 -5 27 C-5.66 27 -6.32 27 -7 27 C-7.24609375 24.7578125 -7.24609375 24.7578125 -7 22 C-5.28515625 19.8671875 -5.28515625 19.8671875 -3.0625 17.875 C0.22231933 14.95683997 0.22231933 14.95683997 2 11 C1.34 11 0.68 11 0 11 C-0.2475 11.61875 -0.495 12.2375 -0.75 12.875 C-2.20628639 15.35068687 -3.37812506 15.95125002 -6 17 C-4.37313433 10.49253731 -4.37313433 10.49253731 -2.4375 7.9375 C-0.54722071 5.38973226 -0.35332984 3.10930258 0 0 Z " fill="#18682E" transform="translate(280,237)"/>
<path d="M0 0 C1.98 0 3.96 0 6 0 C6 9.9 6 19.8 6 30 C3.69 30 1.38 30 -1 30 C-1.02465746 25.8882744 -1.04283959 21.77657722 -1.05493164 17.66479492 C-1.0599708 16.26504772 -1.06680216 14.8653058 -1.07543945 13.46557617 C-1.0875232 11.45754223 -1.09269807 9.44947043 -1.09765625 7.44140625 C-1.10289307 6.23170166 -1.10812988 5.02199707 -1.11352539 3.77563477 C-1 1 -1 1 0 0 Z " fill="#406F58" transform="translate(334,342)"/>
<path d="M0 0 C5.94 0 11.88 0 18 0 C18 2.31 18 4.62 18 7 C14.37 7 10.74 7 7 7 C7 6.67 7 6.34 7 6 C10.3 6 13.6 6 17 6 C17 4.68 17 3.36 17 2 C12.05 2 7.1 2 2 2 C2 10.58 2 19.16 2 28 C6.95 28 11.9 28 17 28 C17 26.68 17 25.36 17 24 C13.37 24 9.74 24 6 24 C5.95745644 22.00045254 5.95919217 19.99958364 6 18 C7 17 7 17 9.06640625 16.90234375 C10.30197266 16.91974609 10.30197266 16.91974609 11.5625 16.9375 C12.38878906 16.94652344 13.21507812 16.95554687 14.06640625 16.96484375 C15.02353516 16.98224609 15.02353516 16.98224609 16 17 C16 15.35 16 13.7 16 12 C13.03 12 10.06 12 7 12 C7 11.67 7 11.34 7 11 C10.3 11 13.6 11 17 11 C17 13.31 17 15.62 17 18 C14.03 18 11.06 18 8 18 C8 19.32 8 20.64 8 22 C11.3 22 14.6 22 18 22 C18.04241723 24.33294775 18.04092937 26.66702567 18 29 C17 30 17 30 13.18359375 30.09765625 C11.60152953 30.09191138 10.01948969 30.07889593 8.4375 30.0625 C4.2609375 30.0315625 4.2609375 30.0315625 0 30 C0 20.1 0 10.2 0 0 Z " fill="#698A7A" transform="translate(168,342)"/>
<path d="M0 0 C0.33 0 0.66 0 1 0 C1.08150744 2.06183633 1.1394194 4.12461349 1.1875 6.1875 C1.22230469 7.33605469 1.25710937 8.48460937 1.29296875 9.66796875 C0.91727033 13.94091216 -0.48550049 16.54608047 -3.5625 19.5 C-6.07974266 22.126688 -6.97245586 24.89823455 -7.0625 28.5 C-7.041875 29.325 -7.02125 30.15 -7 31 C-7.20625 31.86625 -7.4125 32.7325 -7.625 33.625 C-8.31601083 36.26013819 -8.31601083 36.26013819 -6 39 C-2.7161511 41.17444049 0.37323877 41.37216775 4.25 41.625 C6.1475 41.74875 8.045 41.8725 10 42 C10.33 36.06 10.66 30.12 11 24 C14.21451269 22.39274365 17.43612536 22.94251815 21 23 C21 23.33 21 23.66 21 24 C18.69 24.33 16.38 24.66 14 25 C13.87882812 26.20398438 13.75765625 27.40796875 13.6328125 28.6484375 C13.46400141 30.22400766 13.29470541 31.79952592 13.125 33.375 C13.04636719 34.1690625 12.96773437 34.963125 12.88671875 35.78125 C12.2265625 41.7734375 12.2265625 41.7734375 10 44 C7.34316055 44.28013291 4.84691234 44.41618681 2.1875 44.4375 C1.47529297 44.47037109 0.76308594 44.50324219 0.02929688 44.53710938 C-4.02612034 44.57837634 -5.77048117 44.18695905 -8.94921875 41.59765625 C-11.78882699 38.00081914 -12.56977535 35.49444484 -12.5546875 30.83984375 C-11.571103 25.80416815 -8.7162543 21.63718966 -6.04296875 17.33203125 C-2.04520588 10.89081443 -2.04520588 10.89081443 -0.3125 3.625 C-0.1578125 1.830625 -0.1578125 1.830625 0 0 Z " fill="#58975E" transform="translate(191,229)"/>
<path d="M0 0 C-0.33 0.99 -0.66 1.98 -1 3 C-3.64 3.33 -6.28 3.66 -9 4 C-6.69 4.66 -4.38 5.32 -2 6 C-2 6.99 -2 7.98 -2 9 C-7.46137814 9.09752461 -12.59255982 8.77249145 -18 8 C-15.36 8.66 -12.72 9.32 -10 10 C-10 10.66 -10 11.32 -10 12 C-11.44632813 12.07347656 -11.44632813 12.07347656 -12.921875 12.1484375 C-14.18515625 12.22320312 -15.4484375 12.29796875 -16.75 12.375 C-18.62945312 12.47941406 -18.62945312 12.47941406 -20.546875 12.5859375 C-23.60998121 12.95323304 -25.41974266 13.39711286 -28 15 C-27.68327951 9.77411192 -24.69889181 6.4390165 -21 3 C-14.94740277 -0.72371723 -6.901518 -0.150033 0 0 Z " fill="#2A6742" transform="translate(257,220)"/>
<path d="M0 0 C1.32 0.66 2.64 1.32 4 2 C4.05416188 3.60379341 4.09286638 5.20811406 4.125 6.8125 C4.14820313 7.70582031 4.17140625 8.59914063 4.1953125 9.51953125 C4 12 4 12 2 15 C2.28274138 18.31086259 2.28274138 18.31086259 4 21 C4.04063832 22.66617115 4.042721 24.33388095 4 26 C-1.45454545 26.36363636 -1.45454545 26.36363636 -3.875 24.75 C-5 23 -5 23 -5 19 C-3.68 19 -2.36 19 -1 19 C-1 16.69 -1 14.38 -1 12 C-0.34 12 0.32 12 1 12 C0.835 10.7625 0.67 9.525 0.5 8.25 C0.12290556 5.42179168 0 2.88435938 0 0 Z M-11 4 C-5.62694301 3.55958549 -5.62694301 3.55958549 -3 4 C-1 6.5 -1 6.5 0 9 C-0.99 10.485 -0.99 10.485 -2 12 C-4.1640625 12.29296875 -4.1640625 12.29296875 -6.625 12.1875 C-7.44226563 12.16042969 -8.25953125 12.13335937 -9.1015625 12.10546875 C-9.72804687 12.07066406 -10.35453125 12.03585937 -11 12 C-11 9.36 -11 6.72 -11 4 Z " fill="#44755D" transform="translate(160,345)"/>
<path d="M0 0 C-2.74676556 2.74676556 -5.54974784 2.70539709 -9.25 3.125 C-9.9723584 3.21064209 -10.6947168 3.29628418 -11.43896484 3.38452148 C-16.98142123 3.99325517 -22.42809206 4.09551711 -28.00390625 4.01171875 C-33.19757723 3.99648804 -38.37350173 4.1677283 -43.5625 4.375 C-44.51527832 4.40601807 -45.46805664 4.43703613 -46.44970703 4.46899414 C-51.01121133 4.66355875 -54.8642528 4.84906171 -59 7 C-57.68 8.65 -56.36 10.3 -55 12 C-55.99 12.495 -55.99 12.495 -57 13 C-61.04718113 11.3639055 -63.82992994 9.85790233 -66 6 C-66 5.01 -66 4.02 -66 3 C-44.04973752 1.44633934 -22.01700148 -0.09601171 0 0 Z " fill="#559257" transform="translate(244,214)"/>
<path d="M0 0 C4.95 0 9.9 0 15 0 C15 1.32 15 2.64 15 4 C10.545 4.495 10.545 4.495 6 5 C5.67 6.65 5.34 8.3 5 10 C7.31 10 9.62 10 12 10 C12.33 10.99 12.66 11.98 13 13 C10.69 13.33 8.38 13.66 6 14 C5.34 16.31 4.68 18.62 4 21 C3.34 21 2.68 21 2 21 C1.67 21.99 1.34 22.98 1 24 C-0.25248502 21.49502996 -0.11374406 19.79146726 -0.09765625 16.9921875 C-0.09443359 16.00605469 -0.09121094 15.01992188 -0.08789062 14.00390625 C-0.07951172 12.97136719 -0.07113281 11.93882812 -0.0625 10.875 C-0.05798828 9.83472656 -0.05347656 8.79445313 -0.04882812 7.72265625 C-0.03701967 5.14841313 -0.01908385 2.57419947 0 0 Z " fill="#165B3A" transform="translate(300,344)"/>
<path d="M0 0 C3.70401828 1.1071051 5.51017297 2.76509652 8.1171875 5.6328125 C8.9921875 7.9453125 8.9921875 7.9453125 9.1171875 9.6328125 C6.03940872 8.60688624 5.27268276 7.87812006 3.1171875 5.6328125 C0.36080391 3.53289245 0.36080391 3.53289245 -2.30078125 3.1015625 C-5.2018614 3.40912491 -5.2018614 3.40912491 -7.12109375 6.4765625 C-7.83124621 7.68448537 -8.52210286 8.90391749 -9.1953125 10.1328125 C-9.55431641 10.75285156 -9.91332031 11.37289062 -10.28320312 12.01171875 C-11.16639926 13.54259205 -12.02684553 15.08654958 -12.8828125 16.6328125 C-12.2228125 16.6328125 -11.5628125 16.6328125 -10.8828125 16.6328125 C-6.94317836 19.79539849 -3.32408725 23.57222149 -2.57861328 28.74267578 C-2.43020177 33.77675095 -2.91923146 38.69581302 -3.8828125 43.6328125 C-4.5428125 44.2928125 -5.2028125 44.9528125 -5.8828125 45.6328125 C-5.9034375 44.3334375 -5.9240625 43.0340625 -5.9453125 41.6953125 C-5.96078125 40.87160156 -5.97625 40.04789063 -5.9921875 39.19921875 C-5.8828125 36.6328125 -5.8828125 36.6328125 -5.2734375 34.34765625 C-4.60386347 31.78246387 -4.29062666 30.236622 -4.8828125 27.6328125 C-7.32176656 25.27414312 -7.32176656 25.27414312 -10.3828125 23.1328125 C-15.67153709 19.23229347 -15.67153709 19.23229347 -16.67578125 16.3828125 C-16.40515939 10.6095461 -13.13355127 6.36183909 -9.203125 2.33984375 C-6.04773471 0.01845392 -3.85639009 -0.41366122 0 0 Z " fill="#439348" transform="translate(277.8828125,178.3671875)"/>
<path d="M0 0 C4.72773509 4.21563999 7.47197016 9.50122426 7.875 15.8125 C7.9296875 18.45703125 7.9296875 18.45703125 7 21 C2.01800827 25.9472982 -1.91610282 26.54484976 -8.8046875 26.6484375 C-10.38636719 26.63683594 -10.38636719 26.63683594 -12 26.625 C-21.88782315 26.59317516 -21.88782315 26.59317516 -31 30 C-33.05922402 32.05922402 -32.41427579 36.21708124 -32.5625 39.0625 C-32.60568359 39.82111328 -32.64886719 40.57972656 -32.69335938 41.36132812 C-32.79973633 43.24065438 -32.90039934 45.12030244 -33 47 C-35.475 47.495 -35.475 47.495 -38 48 C-37.67 47.34 -37.34 46.68 -37 46 C-36.34 46 -35.68 46 -35 46 C-34.505 37.09 -34.505 37.09 -34 28 C-33.01 28 -32.02 28 -31 28 C-31 27.34 -31 26.68 -31 26 C-28.28376603 24.64188301 -26.1118864 24.87286076 -23.07421875 24.859375 C-21.29047852 24.83037109 -21.29047852 24.83037109 -19.47070312 24.80078125 C-16.9604464 24.76708653 -14.44993461 24.7487102 -11.93945312 24.74609375 C-4.77160058 24.89604313 -4.77160058 24.89604313 1.328125 21.734375 C3.82835661 17.64521115 3.64695704 14.63792576 3 10 C2.27325863 7.0867944 2.27325863 7.0867944 1 5 C-3.27999354 2.86000323 -8.49048355 3.90678389 -13 5 C-10.79213483 0.58426966 -4.59977257 -0.65300983 0 0 Z " fill="#6F9B59" transform="translate(299,285)"/>
<path d="M0 0 C2.64095155 1.04037485 3.38309375 2.57329166 5.0625 4.8125 C6.02349609 4.96912109 6.02349609 4.96912109 7.00390625 5.12890625 C9.0625 5.8125 9.0625 5.8125 10.37109375 8.02734375 C11.12239471 9.83930488 11.87239961 11.65180394 12.62109375 13.46484375 C14.39597047 16.35563211 15.86561555 16.87851873 19.0625 17.8125 C19.0625 18.4725 19.0625 19.1325 19.0625 19.8125 C17.16739301 19.89410748 15.27125496 19.95196459 13.375 20 C11.79138672 20.05220703 11.79138672 20.05220703 10.17578125 20.10546875 C6.70827232 19.77916615 4.87817552 18.80280125 2.0625 16.8125 C2.7225 16.4825 3.3825 16.1525 4.0625 15.8125 C3.7325 12.5125 3.4025 9.2125 3.0625 5.8125 C2.4025 5.8125 1.7425 5.8125 1.0625 5.8125 C0.7325 7.4625 0.4025 9.1125 0.0625 10.8125 C-0.5975 10.4825 -1.2575 10.1525 -1.9375 9.8125 C-2.5703125 7.74609375 -2.5703125 7.74609375 -3.0625 5.25 C-3.23007813 4.42371094 -3.39765625 3.59742188 -3.5703125 2.74609375 C-3.69148437 2.10800781 -3.81265625 1.46992188 -3.9375 0.8125 C-1.9375 -0.1875 -1.9375 -0.1875 0 0 Z " fill="#2A713D" transform="translate(233.9375,261.1875)"/>
<path d="M0 0 C1.84368164 0.00676758 1.84368164 0.00676758 3.72460938 0.01367188 C6.71229356 0.02529711 9.69986855 0.04163441 12.6875 0.0625 C12.375 2 12.375 2 11.6875 4.0625 C10.6975 4.3925 9.7075 4.7225 8.6875 5.0625 C9.6775 5.7225 10.6675 6.3825 11.6875 7.0625 C11.6875 8.0525 11.6875 9.0425 11.6875 10.0625 C10.40875 10.371875 9.13 10.68125 7.8125 11 C5.58648325 11.53855244 3.74010001 12.0362 1.6875 13.0625 C-0.9375 12.125 -0.9375 12.125 -3.3125 11.0625 C-3.3125 10.7325 -3.3125 10.4025 -3.3125 10.0625 C-2.24708984 9.98902344 -2.24708984 9.98902344 -1.16015625 9.9140625 C0.21849609 9.80191406 0.21849609 9.80191406 1.625 9.6875 C2.54152344 9.61789063 3.45804688 9.54828125 4.40234375 9.4765625 C5.15644531 9.33992187 5.91054687 9.20328125 6.6875 9.0625 C7.0175 8.4025 7.3475 7.7425 7.6875 7.0625 C3.3975 7.0625 -0.8925 7.0625 -5.3125 7.0625 C-4.9825 5.0825 -4.6525 3.1025 -4.3125 1.0625 C-5.11945313 1.22621094 -5.92640625 1.38992187 -6.7578125 1.55859375 C-10.94018788 2.15147993 -14.97194818 2.17144252 -19.1875 2.125 C-19.97125 2.12048828 -20.755 2.11597656 -21.5625 2.11132812 C-23.47920014 2.09964093 -25.39586048 2.08170908 -27.3125 2.0625 C-27.3125 1.7325 -27.3125 1.4025 -27.3125 1.0625 C-18.1867143 0.21817207 -9.16180552 -0.06511945 0 0 Z " fill="#80A775" transform="translate(249.3125,212.9375)"/>
<path d="M0 0 C1.02867187 -0.00773437 2.05734375 -0.01546875 3.1171875 -0.0234375 C6.50892014 0.42585695 8.40352366 1.32778531 11.125 3.375 C12.0625 5.9375 12.0625 5.9375 12.125 8.375 C11.465 9.035 10.805 9.695 10.125 10.375 C8.805 10.375 7.485 10.375 6.125 10.375 C6.125 9.715 6.125 9.055 6.125 8.375 C2.495 8.375 -1.135 8.375 -4.875 8.375 C-5.019375 9.98375 -5.16375 11.5925 -5.3125 13.25 C-5.75 18.125 -5.75 18.125 -6.875 20.375 C-7.875 19.375 -7.875 19.375 -8.0625 15.75 C-8.02540203 11.63954534 -7.17081353 8.26244058 -5.875 4.375 C-6.865 4.045 -7.855 3.715 -8.875 3.375 C-6.27697151 -0.01139575 -4.14387546 -0.03100156 0 0 Z " fill="#356A53" transform="translate(202.875,341.625)"/>
<path d="M0 0 C0.66 0 1.32 0 2 0 C1.67 1.98 1.34 3.96 1 6 C0.34 6 -0.32 6 -1 6 C-1.1546875 7.299375 -1.1546875 7.299375 -1.3125 8.625 C-2.03398414 12.16683123 -3.27123261 14.84312042 -5 18 C-5.66 18 -6.32 18 -7 18 C-7.268125 18.721875 -7.53625 19.44375 -7.8125 20.1875 C-8.99901362 22.99766383 -10.27485639 25.48416557 -12 28 C-12.66 28 -13.32 28 -14 28 C-14 25.69 -14 23.38 -14 21 C-14.66 20.67 -15.32 20.34 -16 20 C-14.02 16.37 -12.04 12.74 -10 9 C-8.35 9 -6.7 9 -5 9 C-3.35 6.03 -1.7 3.06 0 0 Z " fill="#589C5A" transform="translate(294,249)"/>
<path d="M0 0 C1.98 0 3.96 0 6 0 C5.67 0.66 5.34 1.32 5 2 C4.01 1.67 3.02 1.34 2 1 C4.05396887 5.29561003 6.087896 9.21426479 9 13 C9 13.66 9 14.32 9 15 C7.68 14.67 6.36 14.34 5 14 C5.40929261 16.94690683 5.76076096 18.69635044 7.625 21.0625 C8.07875 21.701875 8.5325 22.34125 9 23 C8.5859375 25.12109375 8.5859375 25.12109375 8 27 C6.66101601 25.04532248 5.32870953 23.0866421 4 21.125 C3.2575 20.03445313 2.515 18.94390625 1.75 17.8203125 C0 15 0 15 0 13 C-0.66 13 -1.32 13 -2 13 C-4.36503039 10.00893216 -5.91553181 7.97138418 -6.25 4.125 C-6.1675 3.42375 -6.085 2.7225 -6 2 C-4.02 2 -2.04 2 0 2 C0 1.34 0 0.68 0 0 Z " fill="#569863" transform="translate(223,259)"/>
<path d="M0 0 C0.66 0.33 1.32 0.66 2 1 C1.34 2.32 0.68 3.64 0 5 C-0.66 5 -1.32 5 -2 5 C-3.64784853 8.15338287 -4.95163075 11.37665842 -6.25 14.6875 C-9.34936126 22.17533738 -13.15813189 28.36677004 -19 34 C-19.28875 34.721875 -19.5775 35.44375 -19.875 36.1875 C-21 38 -21 38 -24.125 38.75 C-25.07375 38.8325 -26.0225 38.915 -27 39 C-26.175 38.113125 -25.35 37.22625 -24.5 36.3125 C-18.28103396 29.03996795 -13.75487172 20.52251712 -9.375 12.0625 C-6.77894198 7.13297374 -4.22852951 3.60972031 0 0 Z " fill="#356952" transform="translate(247,155)"/>
<path d="M0 0 C24.255 0.495 24.255 0.495 49 1 C49.495 1.99 49.495 1.99 50 3 C53.38035912 3.62599243 56.56169885 4 60 4 C60.495 7.465 60.495 7.465 61 11 C54.47798742 8.31446541 54.47798742 8.31446541 51.625 6.4375 C45.34947757 3.00090439 38.15482805 2.70543048 31.1328125 2.65625 C30.33140839 2.6416272 29.53000427 2.62700439 28.70431519 2.61193848 C25.31637633 2.55026368 21.92827482 2.50986265 18.54003906 2.46826172 C16.04993506 2.43458603 13.56021897 2.3895098 11.0703125 2.34375 C9.92189377 2.33583435 9.92189377 2.33583435 8.75027466 2.32775879 C4.97712058 2.25662061 3.21622772 2.14415182 0 0 Z " fill="#5F8173" transform="translate(175,304)"/>
<path d="M0 0 C0.99 0 1.98 0 3 0 C3.01417969 0.71542969 3.02835937 1.43085938 3.04296875 2.16796875 C3.4466747 10.60214978 5.78066205 17.26177484 9 25 C10.0543908 27.98537318 11.02939534 30.9860171 12 34 C10.515 33.505 10.515 33.505 9 33 C7.83203125 30.05859375 7.83203125 30.05859375 6.8125 26.4375 C6.46832031 25.23996094 6.12414062 24.04242188 5.76953125 22.80859375 C5.51558594 21.88175781 5.26164062 20.95492187 5 20 C4.34 20.33 3.68 20.66 3 21 C3 18.69 3 16.38 3 14 C2.34 14 1.68 14 1 14 C0.62875 13.0409375 0.62875 13.0409375 0.25 12.0625 C-0.81562433 9.81258459 -0.81562433 9.81258459 -3.125 9.25 C-3.74375 9.1675 -4.3625 9.085 -5 9 C-3.49901406 5.88256767 -1.97568178 2.84498177 0 0 Z " fill="#30654E" transform="translate(315,235)"/>
<path d="M0 0 C3.15517807 0.1810919 4.09482399 1.09785198 6.32421875 3.3984375 C7.10410156 4.38070313 7.88398438 5.36296875 8.6875 6.375 C9.47511719 7.35210937 10.26273437 8.32921875 11.07421875 9.3359375 C13 12 13 12 14 15 C12.35 14.67 10.7 14.34 9 14 C9 12.68 9 11.36 9 10 C8.01 10 7.02 10 6 10 C5.67 10.99 5.34 11.98 5 13 C0.79514019 10.10915888 0.79514019 10.10915888 -1 8 C-1.4375 4.25 -1.4375 4.25 -1 1 C-0.67 0.67 -0.34 0.34 0 0 Z " fill="#679B62" transform="translate(254,265)"/>
<path d="M0 0 C5.445 0.495 5.445 0.495 11 1 C11 1.33 11 1.66 11 2 C10.34773438 2.02578125 9.69546875 2.0515625 9.0234375 2.078125 C3.27917137 2.45090923 -0.5320128 3.06391604 -5 7 C-7.90992234 10.69638784 -9.16084225 13.44457219 -10 18 C-11.5625 20.3125 -11.5625 20.3125 -13 22 C-12.2265625 21.7525 -12.2265625 21.7525 -11.4375 21.5 C-8.26636124 20.84951 -5.22781666 20.9379266 -2 21 C-3.32 21.33 -4.64 21.66 -6 22 C-6 22.66 -6 23.32 -6 24 C-8.25 24.6875 -8.25 24.6875 -11 25 C-13.3125 23.5625 -13.3125 23.5625 -15 22 C-14.40165275 17.85701333 -12.99335715 14.81805623 -10.9375 11.1875 C-10.11572266 9.72376953 -10.11572266 9.72376953 -9.27734375 8.23046875 C-8.85582031 7.49441406 -8.43429688 6.75835937 -8 6 C-7.34 6 -6.68 6 -6 6 C-6 5.34 -6 4.68 -6 4 C-4.02 3.34 -2.04 2.68 0 2 C0 1.34 0 0.68 0 0 Z " fill="#589E5A" transform="translate(239,219)"/>
<path d="M0 0 C0 3.38023517 -0.87455622 5.83468937 -2 9 C12.02903187 9.14864015 12.02903187 9.14864015 26 8 C25.67 8.66 25.34 9.32 25 10 C17.28338981 11.54916796 9.33724115 11.11127569 1.5 11.0625 C0.09114742 11.05747533 -1.31770689 11.05291413 -2.7265625 11.04882812 C-6.15108638 11.0371003 -9.57552047 11.02068691 -13 11 C-11.7351082 7.20532459 -10.48340608 6.85654488 -7.0625 4.9375 C-3.27918235 2.80376267 -3.27918235 2.80376267 0 0 Z " fill="#4D7660" transform="translate(219,194)"/>
<path d="M0 0 C0 1.98 0 3.96 0 6 C-0.99 6 -1.98 6 -3 6 C-3.268125 6.9075 -3.53625 7.815 -3.8125 8.75 C-4.89576294 11.71471963 -5.98359457 13.6169754 -8 16 C-7 8.57142857 -7 8.57142857 -6 5 C-7.2684375 5.5259375 -7.2684375 5.5259375 -8.5625 6.0625 C-12.4855156 7.13241334 -15.06469683 6.92595369 -19 6 C-19.33 5.34 -19.66 4.68 -20 4 C-18.80375 4.0825 -17.6075 4.165 -16.375 4.25 C-9.89919101 4.29560429 -6.77024254 -0.644785 0 0 Z " fill="#78A262" transform="translate(320,201)"/>
<path d="M0 0 C1.093125 0.103125 2.18625 0.20625 3.3125 0.3125 C2.68467337 3.21862532 1.75473357 5.62069641 0.375 8.25 C-1.15158815 11.21990785 -2.51343552 14.18166139 -3.6875 17.3125 C-4.6875 15.3125 -4.6875 15.3125 -5.125 13.25 C-5.310625 12.610625 -5.49625 11.97125 -5.6875 11.3125 C-6.3475 10.9825 -7.0075 10.6525 -7.6875 10.3125 C-6.89115276 4.7380693 -6.16455997 0.52242034 0 0 Z " fill="#3E6F5C" transform="translate(240.6875,341.6875)"/>
<path d="M0 0 C2.475 0.495 2.475 0.495 5 1 C5.99 4.3 6.98 7.6 8 11 C8.33 9.35 8.66 7.7 9 6 C9.99 6.33 10.98 6.66 12 7 C13.1577506 10.47325181 13.06866652 13.36067448 13 17 C8.62404183 15.64948877 6.80215989 13.95362974 4.25 10.1875 C3.65703125 9.33542969 3.0640625 8.48335938 2.453125 7.60546875 C1.00184636 5.00331055 0.40029145 2.93371499 0 0 Z " fill="#26643F" transform="translate(225,260)"/>
<path d="M0 0 C1.65 0.33 3.3 0.66 5 1 C5.33 2.32 5.66 3.64 6 5 C-0.03076923 9.92307692 -0.03076923 9.92307692 -4.9375 10.3125 C-5.948125 10.209375 -6.95875 10.10625 -8 10 C-8 8.33333333 -8 6.66666667 -8 5 C-6.8553125 4.87625 -6.8553125 4.87625 -5.6875 4.75 C-2.47626739 3.85384206 -1.70625501 2.78388975 0 0 Z " fill="#1B593A" transform="translate(268,361)"/>
<path d="M0 0 C4.77294956 3.99895774 6.77786803 7.88934013 8 14 C8.36324562 18.56368587 8.45464143 22.6360757 7 27 C4.9375 28.1875 4.9375 28.1875 3 29 C4 24 4 24 4.58203125 21.6796875 C5.05444467 18.65094353 4.79221414 16.32343155 4.25 13.3125 C4.09015625 12.35988281 3.9303125 11.40726562 3.765625 10.42578125 C3.17188371 7.66210879 3.17188371 7.66210879 0 6 C-0.1875 2.875 -0.1875 2.875 0 0 Z " fill="#3A6A57" transform="translate(331,276)"/>
<path d="M0 0 C3.31248187 -0.02888146 6.62493167 -0.04675799 9.9375 -0.0625 C10.88302734 -0.07087891 11.82855469 -0.07925781 12.80273438 -0.08789062 C14.15141602 -0.09272461 14.15141602 -0.09272461 15.52734375 -0.09765625 C16.77632446 -0.10551147 16.77632446 -0.10551147 18.05053711 -0.11352539 C20 0 20 0 21 1 C21.04080783 2.99958364 21.04254356 5.00045254 21 7 C18.69 7 16.38 7 14 7 C14 6.34 14 5.68 14 5 C15.32 5 16.64 5 18 5 C18 4.34 18 3.68 18 3 C12.39 2.67 6.78 2.34 1 2 C1 3.32 1 4.64 1 6 C2.65 6 4.3 6 6 6 C6 6.33 6 6.66 6 7 C4.02 7 2.04 7 0 7 C0 4.69 0 2.38 0 0 Z " fill="#577B69" transform="translate(344,342)"/>
<path d="M0 0 C0.33 0.99 0.66 1.98 1 3 C0.01 4.485 0.01 4.485 -1 6 C-0.34 6 0.32 6 1 6 C0.01772423 8.19123057 -0.74408691 9.77479648 -2.5625 11.375 C-4.62278935 13.70402275 -4.6639317 15.97538534 -5 19 C-4.34 19.33 -3.68 19.66 -3 20 C-3.99 20.33 -4.98 20.66 -6 21 C-6 18.36 -6 15.72 -6 13 C-6.66 13 -7.32 13 -8 13 C-8.36795695 9.7171341 -8.3231932 8.41336988 -6.25 5.76171875 C-5.13625 4.73498047 -5.13625 4.73498047 -4 3.6875 C-3.2575 2.99011719 -2.515 2.29273438 -1.75 1.57421875 C-1.1725 1.05472656 -0.595 0.53523437 0 0 Z " fill="#316047" transform="translate(281,251)"/>
<path d="M0 0 C5.94 0 11.88 0 18 0 C17.67 0.99 17.34 1.98 17 3 C10.97767819 4.46619907 6.09632423 5.32528788 0 4 C0 2.68 0 1.36 0 0 Z " fill="#135A39" transform="translate(345,344)"/>
<path d="M0 0 C2.64392049 1.04154444 3.42825355 2.53876581 5.0625 4.8125 C6.0525 5.1425 7.0425 5.4725 8.0625 5.8125 C7.4025 5.8125 6.7425 5.8125 6.0625 5.8125 C6.7225 8.7825 7.3825 11.7525 8.0625 14.8125 C7.4025 14.8125 6.7425 14.8125 6.0625 14.8125 C3.0625 9.1875 3.0625 9.1875 3.0625 5.8125 C2.4025 5.8125 1.7425 5.8125 1.0625 5.8125 C0.7325 7.4625 0.4025 9.1125 0.0625 10.8125 C-0.5975 10.4825 -1.2575 10.1525 -1.9375 9.8125 C-2.5703125 7.74609375 -2.5703125 7.74609375 -3.0625 5.25 C-3.23007813 4.42371094 -3.39765625 3.59742188 -3.5703125 2.74609375 C-3.69148437 2.10800781 -3.81265625 1.46992188 -3.9375 0.8125 C-1.9375 -0.1875 -1.9375 -0.1875 0 0 Z " fill="#608A75" transform="translate(233.9375,261.1875)"/>
<path d="M0 0 C1.89510699 -0.08160748 3.79124504 -0.13946459 5.6875 -0.1875 C6.74324219 -0.22230469 7.79898437 -0.25710937 8.88671875 -0.29296875 C15.25228721 0.30604961 18.55694333 4.36464845 22.484375 8.9921875 C24.16142074 11.21384087 25.24516065 13.31612675 26 16 C25.01 16 24.02 16 23 16 C23 15.34 23 14.68 23 14 C22.34 14 21.68 14 21 14 C21 12.68 21 11.36 21 10 C20.0409375 9.8453125 20.0409375 9.8453125 19.0625 9.6875 C18.381875 9.460625 17.70125 9.23375 17 9 C16.67 8.01 16.34 7.02 16 6 C14.34051852 4.98812105 12.67419438 3.9873454 11 3 C11 2.34 11 1.68 11 1 C5.06 1.495 5.06 1.495 -1 2 C-0.67 1.34 -0.34 0.68 0 0 Z " fill="#597F70" transform="translate(250,153)"/>
<path d="M0 0 C3.94921299 3.52144524 6.69330983 7.85585907 7.4453125 13.11328125 C7.43839836 15.77868275 7.31683415 18.3546863 7 21 C6.67 21 6.34 21 6 21 C5.96261719 20.38511719 5.92523438 19.77023437 5.88671875 19.13671875 C5.78810547 17.92435547 5.78810547 17.92435547 5.6875 16.6875 C5.62949219 15.88699219 5.57148438 15.08648437 5.51171875 14.26171875 C4.91098199 11.60655397 3.98726026 10.78437244 2 9 C1.64830932 7.67139075 1.31229724 6.33841672 1 5 C-3.27999354 2.86000323 -8.49048355 3.90678389 -13 5 C-10.79213483 0.58426966 -4.59977257 -0.65300983 0 0 Z " fill="#9BB38C" transform="translate(299,285)"/>
<path d="M0 0 C1.04115841 1.30144802 2.02798869 2.64612711 3 4 C4.0828125 5.485 4.0828125 5.485 5.1875 7 C8.03639162 11.9503554 7.3265234 17.47631251 7 23 C5.68 23.33 4.36 23.66 3 24 C3.33 23.01 3.66 22.02 4 21 C4.81811639 14.20024573 3.41480101 9.86918924 0 4 C-0.33 5.65 -0.66 7.3 -1 9 C-1.33 9 -1.66 9 -2 9 C-2 6.36 -2 3.72 -2 1 C-1.34 0.67 -0.68 0.34 0 0 Z " fill="#4E9D52" transform="translate(281,234)"/>
<path d="M0 0 C3.3 0 6.6 0 10 0 C10 1.98 10 3.96 10 6 C8.52093108 6.02689216 7.04172517 6.04634621 5.5625 6.0625 C4.32693359 6.07990234 4.32693359 6.07990234 3.06640625 6.09765625 C1 6 1 6 0 5 C0 3.35 0 1.7 0 0 Z " fill="#6F8B7E" transform="translate(319,358)"/>
<path d="M0 0 C2.64 0 5.28 0 8 0 C8.625 2.375 8.625 2.375 9 5 C7 7 7 7 3.375 7.125 C2.26125 7.08375 1.1475 7.0425 0 7 C0 4.69 0 2.38 0 0 Z " fill="#D7E1DC" transform="translate(149,349)"/>
<path d="M0 0 C0.22211116 1.93596892 0.42722992 3.87389328 0.625 5.8125 C0.74101562 6.89144531 0.85703125 7.97039062 0.9765625 9.08203125 C1 12 1 12 -1 15 C-3 13.9375 -3 13.9375 -5 12 C-5.45623968 7.81780295 -5.44040812 4.52503395 -3 1 C-1 0 -1 0 0 0 Z " fill="#17583A" transform="translate(253,350)"/>
<path d="M0 0 C-0.33 0.99 -0.66 1.98 -1 3 C-3.97851562 3.34179688 -3.97851562 3.34179688 -6.95703125 3.68359375 C-9.19396393 3.97170735 -9.19396393 3.97170735 -12 5 C-12.99 4.67 -13.98 4.34 -15 4 C-18.15020361 4.88319294 -18.15020361 4.88319294 -21 6 C-19.25 2.125 -19.25 2.125 -17 1 C-11.34779191 0.16301855 -5.70628377 -0.12404965 0 0 Z " fill="#1E6930" transform="translate(257,220)"/>
<path d="M0 0 C0.33 0 0.66 0 1 0 C1.08150744 2.06183633 1.1394194 4.12461349 1.1875 6.1875 C1.22230469 7.33605469 1.25710937 8.48460937 1.29296875 9.66796875 C0.8478194 14.73080073 -1.42651703 17.58894808 -5 21 C-5.33 21.66 -5.66 22.32 -6 23 C-6.66 23 -7.32 23 -8 23 C-6.92261163 19.18016851 -5.46514338 16.00635904 -3.4375 12.625 C-0.9540575 8.32280108 -0.26915686 4.93454243 0 0 Z " fill="#6AA06D" transform="translate(191,229)"/>
<path d="M0 0 C1.22589844 0.01353516 1.22589844 0.01353516 2.4765625 0.02734375 C3.41628906 0.04474609 3.41628906 0.04474609 4.375 0.0625 C1.84658608 1.35182365 -0.69081336 2.53879143 -3.3125 3.625 C-6.41566408 4.73077523 -6.41566408 4.73077523 -7.625 6.0625 C-7.86178716 8.75485776 -8.04698025 11.42748156 -8.1875 14.125 C-8.23068359 14.88361328 -8.27386719 15.64222656 -8.31835938 16.42382812 C-8.42473633 18.30315438 -8.52539934 20.18280244 -8.625 22.0625 C-10.275 22.3925 -11.925 22.7225 -13.625 23.0625 C-13.295 22.4025 -12.965 21.7425 -12.625 21.0625 C-11.965 21.0625 -11.305 21.0625 -10.625 21.0625 C-10.13 12.1525 -10.13 12.1525 -9.625 3.0625 C-8.635 3.0625 -7.645 3.0625 -6.625 3.0625 C-6.625 2.4025 -6.625 1.7425 -6.625 1.0625 C-4.21954362 -0.14022819 -2.67503047 -0.03821472 0 0 Z " fill="#80A878" transform="translate(274.625,309.9375)"/>
<path d="M0 0 C0.66 0.33 1.32 0.66 2 1 C1.34 3.97 0.68 6.94 0 10 C1.32 10.33 2.64 10.66 4 11 C4 11.99 4 12.98 4 14 C3.34 14 2.68 14 2 14 C2 13.01 2 12.02 2 11 C1.34 11 0.68 11 0 11 C-0.2475 11.61875 -0.495 12.2375 -0.75 12.875 C-2.20628639 15.35068687 -3.37812506 15.95125002 -6 17 C-4.37313433 10.49253731 -4.37313433 10.49253731 -2.4375 7.9375 C-0.54722071 5.38973226 -0.35332984 3.10930258 0 0 Z " fill="#27663A" transform="translate(280,237)"/>
<path d="M0 0 C0.0825 0.61875 0.165 1.2375 0.25 1.875 C0.81258459 4.18437567 0.81258459 4.18437567 3.0625 5.25 C3.701875 5.4975 4.34125 5.745 5 6 C5 6.99 5 7.98 5 9 C-0.45454545 9.36363636 -0.45454545 9.36363636 -2.875 7.75 C-4 6 -4 6 -4 2 C-2.68 2 -1.36 2 0 2 C0 1.34 0 0.68 0 0 Z " fill="#346850" transform="translate(159,362)"/>
<path d="M0 0 C4.75 1.875 4.75 1.875 7 3 C9.0374763 3.22858114 11.08040303 3.41024278 13.125 3.5625 C14.76855469 3.68818359 14.76855469 3.68818359 16.4453125 3.81640625 C17.28835937 3.87699219 18.13140625 3.93757813 19 4 C19 3.34 19 2.68 19 2 C19.78375 2.20625 20.5675 2.4125 21.375 2.625 C22.24125 2.74875 23.1075 2.8725 24 3 C24.66 2.34 25.32 1.68 26 1 C26 2.32 26 3.64 26 5 C22.63686981 6.6815651 18.92443029 5.98401217 15.25 5.8125 C14.05117187 5.78446289 14.05117187 5.78446289 12.828125 5.75585938 C7.3594046 5.49951311 4.23534006 4.51806473 0 1 C0 0.67 0 0.34 0 0 Z " fill="#559E5C" transform="translate(234,277)"/>
<path d="M0 0 C3.26904517 0.27242043 4.73838544 0.75901455 7.1796875 3.0078125 C9.66705474 7.09648912 9.31644043 10.04055114 8.875 14.6875 C8.82601563 15.45900391 8.77703125 16.23050781 8.7265625 17.02539062 C8.28963901 22.71036099 8.28963901 22.71036099 6 25 C5.92422885 20.22641738 5.98329258 15.98811637 6.9375 11.3125 C7.33282141 9.10858505 7.33282141 9.10858505 7 7 C4.98446109 4.48321451 2.6245252 2.83258617 0 1 C0 0.67 0 0.34 0 0 Z " fill="#659D66" transform="translate(266,199)"/>
<path d="M0 0 C-2.82625905 2.82625905 -5.88135976 2.74476592 -9.6875 3.1875 C-10.73067383 3.32961914 -10.73067383 3.32961914 -11.79492188 3.47460938 C-16.43259032 4.04186854 -20.40502464 3.84913699 -25 3 C-21.23182474 0.48788316 -18.00489113 0.55256315 -13.625 0.375 C-12.49191406 0.31699219 -12.49191406 0.31699219 -11.3359375 0.2578125 C-7.55454789 0.07270951 -3.78684256 -0.04526107 0 0 Z " fill="#579648" transform="translate(244,214)"/>
<path d="M0 0 C1.98 0 3.96 0 6 0 C5.67 0.66 5.34 1.32 5 2 C4.01 1.67 3.02 1.34 2 1 C2.30035156 1.55429687 2.60070312 2.10859375 2.91015625 2.6796875 C3.48056641 3.76636719 3.48056641 3.76636719 4.0625 4.875 C4.44535156 5.59429687 4.82820312 6.31359375 5.22265625 7.0546875 C5.47917969 7.69664062 5.73570312 8.33859375 6 9 C5.67 9.66 5.34 10.32 5 11 C0.125 7.375 0.125 7.375 -1 4 C-3.01508358 3.26676204 -3.01508358 3.26676204 -5 3 C-4.34 4.98 -3.68 6.96 -3 9 C-3.99 8.34 -4.98 7.68 -6 7 C-6.1875 4.375 -6.1875 4.375 -6 2 C-4.02 2 -2.04 2 0 2 C0 1.34 0 0.68 0 0 Z " fill="#A3BCAA" transform="translate(223,259)"/>
<path d="M0 0 C0.99 0 1.98 0 3 0 C2.41892368 3.7602985 1.34800504 6.53035032 -0.5625 9.8125 C-1.01753906 10.60269531 -1.47257812 11.39289063 -1.94140625 12.20703125 C-2.29074219 12.79871094 -2.64007813 13.39039063 -3 14 C-3.66 14 -4.32 14 -5 14 C-5.3125 11.3125 -5.3125 11.3125 -5 8 C-2.5 5.3125 -2.5 5.3125 0 3 C0 2.01 0 1.02 0 0 Z " fill="#25643F" transform="translate(281,256)"/>
<path d="M0 0 C0.66 0 1.32 0 2 0 C2.33 1.98 2.66 3.96 3 6 C2.34 6 1.68 6 1 6 C0.731875 6.598125 0.46375 7.19625 0.1875 7.8125 C-0.98493467 9.97224808 -2.19369282 11.35790256 -4 13 C-4.33 12.34 -4.66 11.68 -5 11 C-4.2578125 8.90625 -4.2578125 8.90625 -3.125 6.5 C-2.75632813 5.7059375 -2.38765625 4.911875 -2.0078125 4.09375 C-1.3486219 2.72426876 -0.67970746 1.35941491 0 0 Z " fill="#406D5A" transform="translate(173,267)"/>
<path d="M0 0 C0.33 0.66 0.66 1.32 1 2 C-1.38782288 8.04677535 -4.77932239 12.23625567 -10 16 C-10.33 15.01 -10.66 14.02 -11 13 C-9.37660195 11.29115995 -7.70680947 9.62553283 -6 8 C-5.34 8 -4.68 8 -4 8 C-3.8453125 6.576875 -3.8453125 6.576875 -3.6875 5.125 C-3 2 -3 2 0 0 Z " fill="#32684C" transform="translate(260,184)"/>
<path d="M0 0 C0.66 0.99 1.32 1.98 2 3 C1.125 6.6875 1.125 6.6875 0 10 C-0.66 10 -1.32 10 -2 10 C-1.67 15.28 -1.34 20.56 -1 26 C-4.48409835 20.77385247 -3.43654663 14.09899931 -3 8 C-2.274651 5.03151972 -1.35008736 2.75642837 0 0 Z " fill="#3F6E59" transform="translate(303,256)"/>
<path d="M0 0 C1.98 0 3.96 0 6 0 C6.66 1.65 7.32 3.3 8 5 C7.34 5 6.68 5 6 5 C6 5.99 6 6.98 6 8 C4.125 7.375 4.125 7.375 2 6 C0.75 2.875 0.75 2.875 0 0 Z " fill="#285B47" transform="translate(219,343)"/>
<path d="M0 0 C0.33 0.99 0.66 1.98 1 3 C0.34 3 -0.32 3 -1 3 C-1 5.31 -1 7.62 -1 10 C-2.32 10 -3.64 10 -5 10 C-5.66 7.69 -6.32 5.38 -7 3 C-5.5459375 2.5359375 -5.5459375 2.5359375 -4.0625 2.0625 C-1.15934208 1.30476658 -1.15934208 1.30476658 0 0 Z " fill="#105D36" transform="translate(160,354)"/>
<path d="M0 0 C1.64177401 3.28354802 0.26642648 6.65628996 -0.4375 10.125 C-0.58509766 10.87910156 -0.73269531 11.63320313 -0.88476562 12.41015625 C-1.25057648 14.27461157 -1.62452356 16.13746714 -2 18 C-4.81858077 13.77212884 -4.68030098 9.96777924 -4 5 C-2 1.875 -2 1.875 0 0 Z " fill="#3C6B55" transform="translate(193,346)"/>
<path d="M0 0 C0.66 0 1.32 0 2 0 C2 4.95 2 9.9 2 15 C0.68 15 -0.64 15 -2 15 C-2.66 13.35 -3.32 11.7 -4 10 C-2.68 10.33 -1.36 10.66 0 11 C0 7.37 0 3.74 0 0 Z " fill="#589052" transform="translate(263,316)"/>
<path d="M0 0 C1 2 1 2 0.6875 4.0625 C0 6 0 6 -2 7 C-3.15681364 12.14101356 -3.15681364 12.14101356 -2 17 C-3.32 16.34 -4.64 15.68 -6 15 C-5.83560987 8.27494919 -4.78944649 4.78944649 0 0 Z " fill="#619568" transform="translate(268,182)"/>
<path d="M0 0 C4.8 2.46153846 4.8 2.46153846 5.8125 5.1875 C5.874375 5.785625 5.93625 6.38375 6 7 C3.69 7.33 1.38 7.66 -1 8 C-1.66 7.01 -2.32 6.02 -3 5 C-2.01 4.67 -1.02 4.34 0 4 C0 2.68 0 1.36 0 0 Z " fill="#416A58" transform="translate(268,344)"/>
<path d="M0 0 C4.72978358 -0.47297836 8.6327178 -0.83439337 12.5 2.25 C15.76612903 5.84274194 15.76612903 5.84274194 16 9 C12.92222122 7.97407374 12.15549526 7.24530756 10 5 C9.01 4.34 8.02 3.68 7 3 C7 2.34 7 1.68 7 1 C4.36 1.33 1.72 1.66 -1 2 C-0.67 1.34 -0.34 0.68 0 0 Z " fill="#78A278" transform="translate(271,179)"/>
<path d="M0 0 C0.33 1.32 0.66 2.64 1 4 C1.95712891 3.98259766 1.95712891 3.98259766 2.93359375 3.96484375 C4.17302734 3.95130859 4.17302734 3.95130859 5.4375 3.9375 C6.26121094 3.92589844 7.08492188 3.91429687 7.93359375 3.90234375 C10 4 10 4 11 5 C11.125 7.5 11.125 7.5 11 10 C10 11 10 11 7.93359375 11.09765625 C7.10988281 11.08605469 6.28617187 11.07445312 5.4375 11.0625 C4.61121094 11.05347656 3.78492188 11.04445313 2.93359375 11.03515625 C2.29550781 11.02355469 1.65742188 11.01195312 1 11 C1 10.67 1 10.34 1 10 C4.465 9.505 4.465 9.505 8 9 C8.33 8.01 8.66 7.02 9 6 C6.03 5.67 3.06 5.34 0 5 C0 3.35 0 1.7 0 0 Z " fill="#658776" transform="translate(305,349)"/>
<path d="M0 0 C4.1424367 1.38081223 5.32203099 3.59825558 8 7 C6.741875 7.020625 5.48375 7.04125 4.1875 7.0625 C3.47980469 7.07410156 2.77210938 7.08570313 2.04296875 7.09765625 C0 7 0 7 -3 6 C-3 5.34 -3 4.68 -3 4 C-2.01 4 -1.02 4 0 4 C0 2.68 0 1.36 0 0 Z " fill="#1A6137" transform="translate(243,273)"/>
<path d="M0 0 C0.99 0.33 1.98 0.66 3 1 C4.06652192 3.30368736 5.06421005 5.64018187 6 8 C6.99 9.485 6.99 9.485 8 11 C7.625 13.1875 7.625 13.1875 7 15 C5.82226349 13.25743068 4.65816821 11.50563593 3.5 9.75 C2.8503125 8.77546875 2.200625 7.8009375 1.53125 6.796875 C0 4 0 4 0 0 Z " fill="#4F9456" transform="translate(224,271)"/>
<path d="M0 0 C0.66 0 1.32 0 2 0 C1.67 1.98 1.34 3.96 1 6 C0.34 6 -0.32 6 -1 6 C-1.12375 6.94875 -1.2475 7.8975 -1.375 8.875 C-2 12 -2 12 -4 14 C-3.38029501 4.19156581 -3.38029501 4.19156581 0 0 Z " fill="#6EA468" transform="translate(294,249)"/>
<path d="M0 0 C0.99 0 1.98 0 3 0 C1.53967505 5.31027254 -0.98320986 9.46330032 -4 14 C-5.13583456 10.28272326 -4.66670026 8.52948291 -3 5 C-2.34 5 -1.68 5 -1 5 C-0.67 3.35 -0.34 1.7 0 0 Z " fill="#6C9F5F" transform="translate(302,233)"/>
<path d="M0 0 C0.66 0 1.32 0 2 0 C3.78409802 3.06246747 4.22880021 5.22079273 4.125 8.75 C4.10695313 9.54921875 4.08890625 10.3484375 4.0703125 11.171875 C4.03550781 12.07679688 4.03550781 12.07679688 4 13 C3.67 13 3.34 13 3 13 C2.67 10.69 2.34 8.38 2 6 C1.34 6 0.68 6 0 6 C-1.6446674 8.46326712 -1.6446674 8.46326712 -3 11 C-3.66 10.67 -4.32 10.34 -5 10 C-4.54625 9.278125 -4.0925 8.55625 -3.625 7.8125 C-2.14505642 5.25105919 -1.02782461 2.76722011 0 0 Z " fill="#CCD9CD" transform="translate(275,232)"/>
<path d="M0 0 C3.78699616 3.36621881 6.8272631 7.41641804 9 12 C8.67 12.66 8.34 13.32 8 14 C3.92861736 11.13902842 1.83655816 8.63972588 0 4 C0 2.68 0 1.36 0 0 Z " fill="#80A77C" transform="translate(287,188)"/>
<path d="M0 0 C0.66 0.33 1.32 0.66 2 1 C1.34 2.32 0.68 3.64 0 5 C-0.66 5 -1.32 5 -2 5 C-2.309375 5.61875 -2.61875 6.2375 -2.9375 6.875 C-3.625 8.25 -4.3125 9.625 -5 11 C-5.66 11 -6.32 11 -7 11 C-7 11.66 -7 12.32 -7 13 C-7.66 13 -8.32 13 -9 13 C-7.47987323 7.59510481 -3.72614782 4.01507372 0 0 Z " fill="#587D6E" transform="translate(247,155)"/>
<path d="M0 0 C0.99 0.33 1.98 0.66 3 1 C4.1577506 4.47325181 4.06866652 7.36067448 4 11 C1.525 10.01 1.525 10.01 -1 9 C-1 8.34 -1 7.68 -1 7 C-0.34 7 0.32 7 1 7 C0.67 4.69 0.34 2.38 0 0 Z " fill="#186033" transform="translate(234,266)"/>
<path d="M0 0 C0 0.99 0 1.98 0 3 C-0.99 2.67 -1.98 2.34 -3 2 C-5.99398962 2.53614251 -5.99398962 2.53614251 -9.1875 3.4375 C-10.27417969 3.72496094 -11.36085937 4.01242188 -12.48046875 4.30859375 C-13.31191406 4.53675781 -14.14335937 4.76492187 -15 5 C-10.68177756 -0.75762992 -6.92478377 -0.60507819 0 0 Z " fill="#155339" transform="translate(261,154)"/>
<path d="M0 0 C0.66 0 1.32 0 2 0 C2 0.66 2 1.32 2 2 C2.66 2 3.32 2 4 2 C4 2.66 4 3.32 4 4 C4.639375 4.20625 5.27875 4.4125 5.9375 4.625 C8 6 8 6 8.75 9.125 C8.87375 10.548125 8.87375 10.548125 9 12 C8.01 11.34 7.02 10.68 6 10 C6 9.34 6 8.68 6 8 C5.01 7.67 4.02 7.34 3 7 C1.3125 3.4375 1.3125 3.4375 0 0 Z " fill="#6FA16E" transform="translate(250,314)"/>
<path d="M0 0 C0 0.33 0 0.66 0 1 C-0.969375 1.309375 -1.93875 1.61875 -2.9375 1.9375 C-5.84065792 2.69523342 -5.84065792 2.69523342 -7 4 C-9.01964199 4.07244053 -11.04167124 4.08377188 -13.0625 4.0625 C-14.16722656 4.05347656 -15.27195312 4.04445313 -16.41015625 4.03515625 C-17.69212891 4.01775391 -17.69212891 4.01775391 -19 4 C-18.67 3.34 -18.34 2.68 -18 2 C-16.00773831 1.71080072 -14.01277818 1.42735449 -12.0078125 1.24609375 C-1.59563976 -0.03010641 -1.59563976 -0.03010641 0 0 Z " fill="#66974C" transform="translate(298,288)"/>
<path d="M0 0 C0 1.98 0 3.96 0 6 C-0.99 6 -1.98 6 -3 6 C-3.33 5.34 -3.66 4.68 -4 4 C-6.52733235 3.34444881 -6.52733235 3.34444881 -9 3 C-6.38997624 -0.48003168 -4.1689578 -0.27793052 0 0 Z " fill="#8FA87E" transform="translate(320,201)"/>
<path d="M0 0 C0 3.38317374 -0.89520867 5.82372493 -2 9 C-2 9.33 -2 9.66 -2 10 C-3.65 10 -5.3 10 -7 10 C-7.33 9.34 -7.66 8.68 -8 8 C-7.34 8 -6.68 8 -6 8 C-5.9071875 7.13375 -5.9071875 7.13375 -5.8125 6.25 C-4.67972699 3.11309013 -2.65802405 1.90832496 0 0 Z " fill="#356851" transform="translate(219,194)"/>
<path d="M0 0 C1.07894531 0.04640625 2.15789062 0.0928125 3.26953125 0.140625 C4.35621094 0.17671875 5.44289062 0.2128125 6.5625 0.25 C7.39394531 0.29640625 8.22539062 0.3428125 9.08203125 0.390625 C9.41203125 1.050625 9.74203125 1.710625 10.08203125 2.390625 C9.34597656 2.45121094 8.60992187 2.51179688 7.8515625 2.57421875 C6.87574219 2.65800781 5.89992187 2.74179687 4.89453125 2.828125 C3.93160156 2.90933594 2.96867188 2.99054688 1.9765625 3.07421875 C-0.70446477 3.36728651 -3.28426735 3.81766254 -5.91796875 4.390625 C-4.20732299 1.34147397 -3.55091093 0.47535622 0 0 Z " fill="#648477" transform="translate(199.91796875,341.609375)"/>
<path d="M0 0 C4.455 1.98 4.455 1.98 9 4 C8.34 5.65 7.68 7.3 7 9 C6.34 7.68 5.68 6.36 5 5 C3.68 5.33 2.36 5.66 1 6 C0.67 4.02 0.34 2.04 0 0 Z " fill="#3D9847" transform="translate(227,272)"/>
<path d="M0 0 C-0.98227577 2.19123057 -1.74408691 3.77479648 -3.5625 5.375 C-5.62278935 7.70402275 -5.6639317 9.97538534 -6 13 C-5.34 13.33 -4.68 13.66 -4 14 C-4.99 14.33 -5.98 14.66 -7 15 C-7 12.36 -7 9.72 -7 7 C-7.66 6.67 -8.32 6.34 -9 6 C-7.8803014 4.99406757 -6.7540588 3.9954151 -5.625 3 C-4.68527344 2.1646875 -4.68527344 2.1646875 -3.7265625 1.3125 C-2 0 -2 0 0 0 Z " fill="#69947C" transform="translate(282,257)"/>
<path d="M0 0 C0.66 0 1.32 0 2 0 C1.44449305 3.59905908 0.25112752 4.99909799 -2.5625 7.25 C-3.20316406 7.77078125 -3.84382813 8.2915625 -4.50390625 8.828125 C-4.99761719 9.21484375 -5.49132812 9.6015625 -6 10 C-6.33 7.69 -6.66 5.38 -7 3 C-6.34 2.67 -5.68 2.34 -5 2 C-5.33 3.32 -5.66 4.64 -6 6 C-2.47618313 3.45395403 -2.47618313 3.45395403 0 0 Z " fill="#A1B7AC" transform="translate(280,248)"/>
<path d="M0 0 C1.32 0 2.64 0 4 0 C4 0.99 4 1.98 4 3 C2.081875 3.4640625 2.081875 3.4640625 0.125 3.9375 C-2.10101675 4.47605244 -3.94739999 4.9737 -6 6 C-8.625 5.0625 -8.625 5.0625 -11 4 C-11 3.67 -11 3.34 -11 3 C-10.28972656 2.95101562 -9.57945312 2.90203125 -8.84765625 2.8515625 C-7.46900391 2.73941406 -7.46900391 2.73941406 -6.0625 2.625 C-5.14597656 2.55539063 -4.22945312 2.48578125 -3.28515625 2.4140625 C-2.15400391 2.20910156 -2.15400391 2.20910156 -1 2 C-0.67 1.34 -0.34 0.68 0 0 Z " fill="#507E63" transform="translate(257,220)"/>
<path d="M0 0 C0.33 1.32 0.66 2.64 1 4 C0.40832031 3.98839844 -0.18335938 3.97679687 -0.79296875 3.96484375 C-5.00231785 3.91677614 -8.8922333 3.93993117 -13 5 C-10.74037349 0.48074698 -4.66953512 -0.42450319 0 0 Z " fill="#8EA87E" transform="translate(299,285)"/>
<path d="M0 0 C1.13869156 2.7949702 1.06846818 3.82681578 -0.0625 6.6875 C-2 9 -2 9 -5.1875 9.8125 C-6.115625 9.874375 -7.04375 9.93625 -8 10 C-7.59007812 9.52949219 -7.18015625 9.05898437 -6.7578125 8.57421875 C-6.21898437 7.95160156 -5.68015625 7.32898438 -5.125 6.6875 C-4.59132812 6.07261719 -4.05765625 5.45773438 -3.5078125 4.82421875 C-1.8359553 2.86501788 -1.8359553 2.86501788 0 0 Z " fill="#45715E" transform="translate(228,184)"/>
<path d="M0 0 C0.66 0.33 1.32 0.66 2 1 C1.67 3.97 1.34 6.94 1 10 C-0.32 9.67 -1.64 9.34 -3 9 C-2.67 7.35 -2.34 5.7 -2 4 C-1.34 4 -0.68 4 0 4 C0 2.68 0 1.36 0 0 Z " fill="#389345" transform="translate(270,231)"/>
<path d="M0 0 C2.625 0.375 2.625 0.375 5 1 C5.33 2.32 5.66 3.64 6 5 C4.02 5.99 4.02 5.99 2 7 C1.566875 6.0409375 1.566875 6.0409375 1.125 5.0625 C0.17176549 2.84793921 0.17176549 2.84793921 -2 2 C-1.34 1.34 -0.68 0.68 0 0 Z " fill="#557868" transform="translate(268,361)"/>
<path d="M0 0 C1.32 0.33 2.64 0.66 4 1 C4.625 3.8125 4.625 3.8125 5 7 C4.01 8.485 4.01 8.485 3 10 C2.01 9.67 1.02 9.34 0 9 C0.66 9 1.32 9 2 9 C1.67 8.2575 1.34 7.515 1 6.75 C0 4 0 4 0 0 Z " fill="#457360" transform="translate(240,267)"/>
<path d="M0 0 C1 2 1 2 0.0625 5.125 C-0.288125 6.07375 -0.63875 7.0225 -1 8 C0.32 8.66 1.64 9.32 3 10 C2 11 2 11 -0.5625 11.0625 C-1.366875 11.041875 -2.17125 11.02125 -3 11 C-3.32613618 6.32538149 -2.70582788 3.83325617 0 0 Z " fill="#74A37A" transform="translate(268,232)"/>
<path d="M0 0 C1.32 0 2.64 0 4 0 C3.67 2.64 3.34 5.28 3 8 C2.01 7.01 1.02 6.02 0 5 C-0.99 5.33 -1.98 5.66 -3 6 C-1.125 1.125 -1.125 1.125 0 0 Z " fill="#D4DDD7" transform="translate(259,189)"/>
<path d="M0 0 C1.32 0 2.64 0 4 0 C4 0.66 4 1.32 4 2 C-1.56069582 4.25433614 -7.0785651 4.59961828 -13 5 C-13 4.34 -13 3.68 -13 3 C-6.565 2.505 -6.565 2.505 0 2 C0 1.34 0 0.68 0 0 Z " fill="#30624A" transform="translate(330,305)"/>
<path d="M0 0 C2.0343459 1.41519715 2.90410393 2.54982123 3.421875 4.98046875 C3.66273952 6.98176954 3.83532741 8.9909944 4 11 C3.01 11 2.02 11 1 11 C-0.17571451 7.32589215 -0.07366746 3.83070817 0 0 Z " fill="#2D5F49" transform="translate(166,287)"/>
<path d="M0 0 C0.66 0 1.32 0 2 0 C1.855625 0.680625 1.71125 1.36125 1.5625 2.0625 C0.93054091 5.36273082 0.45686059 8.67144426 0 12 C0.66 12.33 1.32 12.66 2 13 C1.01 13.33 0.02 13.66 -1 14 C-1 11.69 -1 9.38 -1 7 C-1.66 6.67 -2.32 6.34 -3 6 C-2.01 4.02 -1.02 2.04 0 0 Z " fill="#84AD8C" transform="translate(281,263)"/>
<path d="M0 0 C1.31625194 2.63250388 0.74813658 3.80179056 0.0625 6.625 C-0.13214844 7.44226563 -0.32679688 8.25953125 -0.52734375 9.1015625 C-0.76130859 10.04128906 -0.76130859 10.04128906 -1 11 C-2.32 11.33 -3.64 11.66 -5 12 C-3.85814266 7.52040582 -2.56984833 3.85477249 0 0 Z " fill="#4C7B66" transform="translate(309,244)"/>
<path d="M0 0 C5.3503559 0.57021934 10.67787852 1.20734361 16 2 C16 2.33 16 2.66 16 3 C14.02 3 12.04 3 10 3 C9.67 3.66 9.34 4.32 9 5 C9 4.34 9 3.68 9 3 C7.700625 2.87625 6.40125 2.7525 5.0625 2.625 C2.84765625 2.4140625 2.84765625 2.4140625 1 2 C0.67 1.34 0.34 0.68 0 0 Z " fill="#B4C4BB" transform="translate(238,227)"/>
<path d="M0 0 C2.97 0.495 2.97 0.495 6 1 C5.60196439 3.88575819 5.20990931 4.82189513 2.9375 6.75 C2.298125 7.1625 1.65875 7.575 1 8 C1.57584432 5.61435923 2.22227595 3.33317216 3 1 C1.35 1.66 -0.3 2.32 -2 3 C-1.34 2.01 -0.68 1.02 0 0 Z " fill="#3A6753" transform="translate(209,362)"/>
<path d="M0 0 C0.33 0.66 0.66 1.32 1 2 C1.515625 1.835 2.03125 1.67 2.5625 1.5 C5.73363876 0.84951 8.77218334 0.9379266 12 1 C10.68 1.33 9.36 1.66 8 2 C8 2.66 8 3.32 8 4 C5.6875 4.625 5.6875 4.625 3 5 C2.01 4.34 1.02 3.68 0 3 C0 2.01 0 1.02 0 0 Z " fill="#6FA065" transform="translate(225,239)"/>
<path d="M0 0 C2 1 2 1 2.78125 3.109375 C3.0184375 3.98078125 3.255625 4.8521875 3.5 5.75 C4.4919846 9.26474746 5.54513179 12.64261182 7 16 C6.01 15.67 5.02 15.34 4 15 C2.83203125 12.12890625 2.83203125 12.12890625 1.8125 8.5625 C1.29623047 6.80099609 1.29623047 6.80099609 0.76953125 5.00390625 C0 2 0 2 0 0 Z " fill="#79968A" transform="translate(320,253)"/>
<path d="M0 0 C0.33 0.66 0.66 1.32 1 2 C0.67 2.66 0.34 3.32 0 4 C0.66 4.33 1.32 4.66 2 5 C0.71034824 6.37562854 -0.62689293 7.70766393 -2 9 C-2.66 9 -3.32 9 -4 9 C-2.25 2.25 -2.25 2.25 0 0 Z " fill="#4C6C5A" transform="translate(278,245)"/>
<path d="M0 0 C1.65 0.33 3.3 0.66 5 1 C5 1.99 5 2.98 5 4 C4 5 4 5 1.4375 5.0625 C0.2309375 5.0315625 0.2309375 5.0315625 -1 5 C-0.67 3.35 -0.34 1.7 0 0 Z " fill="#5E9D4C" transform="translate(245,214)"/>
<path d="M0 0 C0.66 0.33 1.32 0.66 2 1 C0.38405168 3.04119788 -1.2856382 5.04072937 -3 7 C-3.66 7 -4.32 7 -5 7 C-5 7.99 -5 8.98 -5 10 C-5.66 10 -6.32 10 -7 10 C-5.6062718 5.56541027 -3.39417765 3.12621626 0 0 Z " fill="#BCCCC5" transform="translate(268,174)"/>
<path d="M0 0 C-0.33 0.99 -0.66 1.98 -1 3 C-3.97 2.67 -6.94 2.34 -10 2 C-6.3558226 -0.4294516 -4.28758728 -0.16179575 0 0 Z " fill="#1D5A33" transform="translate(257,220)"/>
<path d="M0 0 C3.51121797 0.2926015 4.80482666 0.8099628 7.375 3.3125 C9 6 9 6 8.75 8.3125 C8.5025 8.869375 8.255 9.42625 8 10 C7.608125 9.278125 7.21625 8.55625 6.8125 7.8125 C4.85350102 4.772674 2.62036403 2.47872273 0 0 Z " fill="#7AA77C" transform="translate(266,199)"/>
<path d="M0 0 C3.34905453 3.34905453 3.89470285 5.49378854 5 10 C3.68 10 2.36 10 1 10 C0.67 6.7 0.34 3.4 0 0 Z " fill="#44735E" transform="translate(228,297)"/>
<path d="M0 0 C1.70884005 1.62339805 3.37446717 3.29319053 5 5 C5 5.66 5 6.32 5 7 C3.35 6.67 1.7 6.34 0 6 C-1 3 -1 3 0 0 Z " fill="#3A6F55" transform="translate(221,288)"/>
<path d="M0 0 C-0.33 1.65 -0.66 3.3 -1 5 C-2.98 5 -4.96 5 -7 5 C-6 2 -6 2 -4.0625 0.8125 C-2 0 -2 0 0 0 Z " fill="#6F857B" transform="translate(213,200)"/>
<path d="M0 0 C0.66 0.66 1.32 1.32 2 2 C0.02 4.64 -1.96 7.28 -4 10 C-4.33 9.01 -4.66 8.02 -5 7 C-4.34 7 -3.68 7 -3 7 C-2.87625 6.030625 -2.7525 5.06125 -2.625 4.0625 C-2.41875 3.051875 -2.2125 2.04125 -2 1 C-1.34 0.67 -0.68 0.34 0 0 Z " fill="#1A603E" transform="translate(263,176)"/>
<path d="M0 0 C3.3 0 6.6 0 10 0 C10 1.65 10 3.3 10 5 C8.68 4.67 7.36 4.34 6 4 C6.66 3.01 7.32 2.02 8 1 C5.36 1 2.72 1 0 1 C0 0.67 0 0.34 0 0 Z " fill="#335E4E" transform="translate(285,365)"/>
<path d="M0 0 C2.31 0 4.62 0 7 0 C7 0.99 7 1.98 7 3 C4.69 3 2.38 3 0 3 C0 2.01 0 1.02 0 0 Z " fill="#20543E" transform="translate(321,360)"/>
<path d="M0 0 C0.99 0.33 1.98 0.66 3 1 C2.34 1 1.68 1 1 1 C1.66 3.97 2.32 6.94 3 10 C2.34 10 1.68 10 1 10 C-0.83691257 6.21812119 -1.15837626 4.05431692 0 0 Z " fill="#A6BCB2" transform="translate(239,266)"/>
<path d="M0 0 C0.99 0.33 1.98 0.66 3 1 C1.60667426 4.36720387 0.0210714 5.9859524 -3 8 C-1.125 1.125 -1.125 1.125 0 0 Z " fill="#135B3D" transform="translate(311,243)"/>
<path d="M0 0 C1.4835001 0.42257276 2.96176424 0.86356322 4.4375 1.3125 C5.67306641 1.67794922 5.67306641 1.67794922 6.93359375 2.05078125 C7.61550781 2.36402344 8.29742187 2.67726562 9 3 C9.33 3.99 9.66 4.98 10 6 C3.47692308 4.52307692 3.47692308 4.52307692 1.0625 1.875 C0.711875 1.25625 0.36125 0.6375 0 0 Z " fill="#7CA782" transform="translate(179,221)"/>
<path d="M0 0 C1.33332095 2.6666419 0.67102033 4.16680303 0 7 C-0.66 7 -1.32 7 -2 7 C-2 9.31 -2 11.62 -2 14 C-2.33 14 -2.66 14 -3 14 C-3.32374517 8.49633208 -3.53286034 4.56327794 0 0 Z " fill="#85AD8A" transform="translate(182,252)"/>
<path d="M0 0 C0.99 0.33 1.98 0.66 3 1 C2.67 2.65 2.34 4.3 2 6 C0.02 6 -1.96 6 -4 6 C-2.68 5.67 -1.36 5.34 0 5 C0 3.35 0 1.7 0 0 Z " fill="#7E9A74" transform="translate(237,241)"/>
<path d="M0 0 C1.9375 0.625 1.9375 0.625 4 2 C4.75 5.125 4.75 5.125 5 8 C2.20127563 5.47211993 0.54226981 3.79588866 0 0 Z " fill="#569756" transform="translate(241,299)"/>
<path d="M0 0 C0.66 0 1.32 0 2 0 C1.44271087 3.34373475 0.64826111 6.03312999 -1 9 C-2.0326802 6.21176345 -2.04509293 5.1322726 -1.0625 2.25 C-0.711875 1.5075 -0.36125 0.765 0 0 Z " fill="#19573B" transform="translate(169,279)"/>
<path d="M0 0 C0.33 0.99 0.66 1.98 1 3 C0.34 3.66 -0.32 4.32 -1 5 C-1 5.99 -1 6.98 -1 8 C-1.99 8.33 -2.98 8.66 -4 9 C-3.46930939 5.17902761 -2.50298434 2.93828597 0 0 Z " fill="#2A6E38" transform="translate(233,226)"/>
<path d="M0 0 C1 2 1 2 0.875 4 C0 6 0 6 -2.5625 7.25 C-3.366875 7.4975 -4.17125 7.745 -5 8 C-3.8141763 4.62496331 -2.72426311 2.35277269 0 0 Z " fill="#72A075" transform="translate(268,182)"/>
<path d="M0 0 C0.99 0.99 1.98 1.98 3 3 C2.67 3.99 2.34 4.98 2 6 C-0.64 5.34 -3.28 4.68 -6 4 C-6 3.67 -6 3.34 -6 3 C-4.02 2.67 -2.04 2.34 0 2 C0 1.34 0 0.68 0 0 Z " fill="#B4C9B5" transform="translate(256,275)"/>
<path d="M0 0 C1.65 1.65 3.3 3.3 5 5 C3.0625 5.5625 3.0625 5.5625 1 6 C0 5 0 5 -0.0625 2.4375 C-0.041875 1.633125 -0.02125 0.82875 0 0 Z " fill="#739F69" transform="translate(263,274)"/>
<path d="M0 0 C2.475 0.495 2.475 0.495 5 1 C5.33 2.32 5.66 3.64 6 5 C5.34 5 4.68 5 4 5 C4 4.01 4 3.02 4 2 C3.01 2.99 2.02 3.98 1 5 C0.67 3.35 0.34 1.7 0 0 Z " fill="#3B6850" transform="translate(225,260)"/>
<path d="M0 0 C1.5 1.375 1.5 1.375 3 3 C3 3.66 3 4.32 3 5 C0.03 5 -2.94 5 -6 5 C-6 4.67 -6 4.34 -6 4 C-4.35 3.67 -2.7 3.34 -1 3 C-0.67 2.01 -0.34 1.02 0 0 Z " fill="#688476" transform="translate(276,169)"/>
<path d="M0 0 C1.32 0.33 2.64 0.66 4 1 C4.33 3.64 4.66 6.28 5 9 C3.05731159 6.08596738 1.53604696 3.14191424 0 0 Z " fill="#3D6D54" transform="translate(307,289)"/>
<path d="M0 0 C0.66 0 1.32 0 2 0 C2 2.31 2 4.62 2 7 C1.01 7 0.02 7 -1 7 C-0.67 4.69 -0.34 2.38 0 0 Z " fill="#125F26" transform="translate(281,240)"/>
<path d="M0 0 C4.8 2.46153846 4.8 2.46153846 5.8125 5.1875 C5.874375 5.785625 5.93625 6.38375 6 7 C5.01 6.67 4.02 6.34 3 6 C2.67 5.01 2.34 4.02 2 3 C1.01 2.34 0.02 1.68 -1 1 C-0.67 0.67 -0.34 0.34 0 0 Z " fill="#2A604A" transform="translate(264,156)"/>
</svg>
